<svg width="273" height="78" viewBox="0 0 273 78" fill="none" xmlns="http://www.w3.org/2000/svg">
<path fill-rule="evenodd" clip-rule="evenodd" d="M35.6574 35.0728C35.9915 38.3908 36.1587 40.672 36.1587 41.9163C36.1587 43.1605 35.7648 44.5214 34.9772 45.999C34.1658 47.5025 32.8172 48.2542 30.9317 48.2542H20.6211C20.7883 53.672 21.0985 57.7807 21.5519 60.5803C20.5257 62.7577 18.2344 64.3131 14.6783 65.2463C13.2462 65.6092 11.5516 65.7906 9.59455 65.7906C7.61354 65.7906 5.83552 65.0259 4.26029 63.4965C2.68505 61.9671 1.95708 60.3081 2.07639 58.5194C2.07639 48.6949 2.47025 36.0967 3.25787 20.7248C1.99292 20.4656 1.27686 20.2712 1.10981 20.1416C0.369937 18.0937 0 15.3459 0 11.8983C0 8.45065 0.859181 5.59921 2.57765 3.34397C4.29601 1.11466 6.70661 0 9.80934 0C10.1434 0 10.7402 0 11.5994 0C12.4586 0 15.4659 0.155537 20.6211 0.466581C25.7764 0.777655 31.1942 0.933192 36.8746 0.933192C37.4952 2.79961 37.8055 5.78065 37.8055 9.87638C37.8055 13.998 37.0894 17.2124 35.6574 19.5194C34.2254 21.8006 31.8745 22.9412 28.6047 22.9412C25.3349 22.9412 22.5544 22.8893 20.2632 22.7856V35.3838C25.5378 35.1765 30.6692 35.0728 35.6574 35.0728ZM48.9439 65.7906C44.2421 65.7906 41.8912 62.1226 41.8912 54.7866V26.7906L39.9937 20.336C40.2325 20.0249 40.5666 19.6231 40.9962 19.1306C41.4258 18.6381 42.3566 17.99 43.7886 17.1864C45.2207 16.3569 46.7005 15.9422 48.2279 15.9422C51.8558 15.9422 54.0395 18.4307 54.7794 23.4078C57.5719 18.6899 60.9013 16.331 64.7678 16.331C68.6342 16.331 70.5675 18.327 70.5675 22.319C70.5675 25.7926 69.8873 28.6441 68.5269 30.8734C67.2619 32.8694 65.9373 34.4636 64.553 35.656C61.8799 33.0379 58.7056 31.3529 55.03 30.6012V55.331L56.9275 60.1137C56.6888 60.5284 56.3666 61.0469 55.9609 61.669C55.5789 62.2911 54.6959 63.1336 53.3116 64.1964C51.9273 65.2592 50.4714 65.7906 48.9439 65.7906ZM100.092 52.4536C100.712 53.1276 101.023 54.0219 101.023 55.1366C101.023 56.2772 100.748 57.4177 100.199 58.5583C99.6503 59.6989 98.8508 60.8136 97.8006 61.9023C96.7505 62.991 95.2469 63.9113 93.2897 64.663C91.3326 65.4148 89.1966 65.7906 86.8815 65.7906C84.5663 65.7906 82.4898 65.4277 80.6521 64.7019C78.8143 64.002 77.072 62.8744 75.4252 61.319C71.8213 57.8195 70.0193 52.1296 70.0193 44.2492C70.0193 36.343 71.2485 30.4716 73.7067 26.6351C76.1651 22.8245 78.9694 20.7248 82.1199 20.336C84.4112 17.666 87.1797 16.331 90.4257 16.331C93.6477 16.331 96.2731 17.6012 98.3019 20.1416C100.354 22.7079 101.381 26.1944 101.381 30.6012C101.381 35.7597 99.6265 39.8425 96.118 42.8494C93.254 45.338 89.817 47.2303 85.8074 48.5264C87.8122 51.3779 91.1417 52.8036 95.7958 52.8036C97.1085 52.8036 98.5405 52.6869 100.092 52.4536ZM89.4233 35.1894C89.4233 31.3789 87.2752 29.2921 82.9792 28.9292V37.328C82.9792 40.1276 83.2059 42.3699 83.6594 44.0548C87.5019 41.7477 89.4233 38.7926 89.4233 35.1894ZM133.096 52.4536C133.716 53.1276 134.026 54.0219 134.026 55.1366C134.026 56.2772 133.752 57.4177 133.203 58.5583C132.654 59.6989 131.854 60.8136 130.804 61.9023C129.754 62.991 128.251 63.9113 126.293 64.663C124.336 65.4148 122.2 65.7906 119.885 65.7906C117.57 65.7906 115.494 65.4277 113.656 64.7019C111.818 64.002 110.076 62.8744 108.429 61.319C104.825 57.8195 103.023 52.1296 103.023 44.2492C103.023 36.343 104.252 30.4716 106.71 26.6351C109.169 22.8245 111.973 20.7248 115.124 20.336C117.415 17.666 120.183 16.331 123.429 16.331C126.651 16.331 129.277 17.6012 131.306 20.1416C133.358 22.7079 134.384 26.1944 134.384 30.6012C134.384 35.7597 132.63 39.8425 129.122 42.8494C126.258 45.338 122.821 47.2303 118.811 48.5264C120.816 51.3779 124.145 52.8036 128.8 52.8036C130.112 52.8036 131.544 52.6869 133.096 52.4536ZM122.427 35.1894C122.427 31.3789 120.279 29.2921 115.983 28.9292V37.328C115.983 40.1276 116.21 42.3699 116.663 44.0548C120.506 41.7477 122.427 38.7926 122.427 35.1894ZM151.636 75.9781C149.798 77.326 147.65 78 145.192 78C142.733 78 141.003 77.4816 140.001 76.4447C138.998 75.3819 138.497 73.671 138.497 71.3121V26.7906L136.6 20.336C136.838 20.0249 137.172 19.6231 137.602 19.1306C138.032 18.6381 138.962 17.99 140.394 17.1864C141.827 16.3569 143.306 15.9422 144.834 15.9422C147.817 15.9422 149.822 17.7178 150.848 21.2692C153.903 17.9771 157.304 16.331 161.051 16.331C164.799 16.331 167.686 17.5882 169.715 20.1027C171.744 22.6171 172.758 25.9611 172.758 30.1346V42.2662C172.758 47.995 170.706 53.348 166.6 58.325C162.472 63.3021 157.889 65.7906 152.853 65.7906H151.636V75.9781ZM151.636 53.8534C152.495 54.6052 153.617 54.9811 155.001 54.9811C156.362 54.9811 157.471 54.5145 158.331 53.5813C159.19 52.6481 159.619 51.339 159.619 49.654V36.1226C159.619 32.8305 158.879 30.5882 157.4 29.3958C156.469 28.7737 155.526 28.4626 154.572 28.4626C153.593 28.4626 152.614 28.6182 151.636 28.9292V53.8534ZM194.042 37.7168C194.042 33.2841 191.786 31.0678 187.275 31.0678C184.698 31.0678 182.001 31.9751 179.184 33.7896C178.277 32.7787 177.824 31.5474 177.824 30.0957C177.824 28.6441 178.206 27.1406 178.97 25.5853C179.757 24.0299 180.795 22.5523 182.084 21.1526C183.373 19.7528 185.02 18.5992 187.025 17.6919C189.03 16.7846 191.142 16.331 193.361 16.331C197.825 16.331 201.261 17.8604 203.672 20.9192C206.083 23.9521 207.288 28.3071 207.288 33.984V55.331L209.185 60.1137C208.947 60.5284 208.625 61.0469 208.219 61.669C207.837 62.2911 206.954 63.1336 205.57 64.1964C204.185 65.2592 202.753 65.7906 201.273 65.7906C197.55 65.7906 195.283 63.5484 194.471 59.0638C192.586 63.5484 189.972 65.7906 186.631 65.7906C183.266 65.7906 180.712 64.65 178.97 62.3689C177.227 60.1137 176.356 57.1456 176.356 53.4646C176.356 43.9511 182.251 38.9093 194.042 38.339V37.7168ZM187.096 50.004C187.096 52.4407 187.872 53.996 189.423 54.67C189.757 54.8774 190.128 54.9811 190.533 54.9811C191.679 54.9811 192.848 54.2552 194.042 52.8036V42.5384C189.411 43.7308 187.096 46.2193 187.096 50.004ZM223.36 28.2682C223.36 30.7567 225.425 32.999 229.554 34.995C231.224 35.8764 232.907 36.8225 234.602 37.8335C236.272 38.8704 237.716 40.3609 238.933 42.3051C240.127 44.2752 240.723 46.66 240.723 49.4596C240.723 54.3848 239.196 58.338 236.141 61.319C233.062 64.3001 229.279 65.7906 224.792 65.7906C220.305 65.7906 216.821 64.7149 214.338 62.5633C211.88 60.4118 210.651 58.1565 210.651 55.7976C210.651 54.1904 211.009 52.7517 211.725 51.4816C212.441 50.1854 213.169 49.33 213.909 48.9153L214.947 48.2542C215.305 48.7986 215.806 49.4985 216.451 50.3539C217.119 51.1834 218.42 52.2851 220.353 53.659C222.31 55.0329 223.993 55.7199 225.401 55.7199C226.809 55.7199 227.776 55.4865 228.301 55.02C228.85 54.5533 229.124 54.0349 229.124 53.4646C229.124 52.4018 228.229 51.2871 226.439 50.1206C224.625 48.9282 222.656 47.8265 220.532 46.8156C218.408 45.7787 216.451 44.2622 214.661 42.2662C212.847 40.2702 211.94 38.002 211.94 35.4616C211.94 32.9212 212.644 30.4975 214.052 28.1904C215.46 25.8833 217.107 24.2632 218.992 23.33C219.279 21.334 220.437 19.5972 222.465 18.1196C224.494 16.6161 227.06 15.8644 230.162 15.8644C233.265 15.8644 235.759 16.6421 237.645 18.1974C239.53 19.7528 240.473 21.8395 240.473 24.4576C240.473 27.0758 240.127 28.9681 239.435 30.1346C238.743 31.327 237.657 32.2602 236.177 32.9342C233.647 29.9013 229.375 28.0738 223.36 27.4516V28.2682ZM255.637 28.2682C255.637 30.7567 257.701 32.999 261.83 34.995C263.501 35.8764 265.184 36.8225 266.878 37.8335C268.549 38.8704 269.993 40.3609 271.21 42.3051C272.403 44.2752 273 46.66 273 49.4596C273 54.3848 271.473 58.338 268.418 61.319C265.339 64.3001 261.556 65.7906 257.069 65.7906C252.582 65.7906 249.097 64.7149 246.615 62.5633C244.157 60.4118 242.927 58.1565 242.927 55.7976C242.927 54.1904 243.286 52.7517 244.001 51.4816C244.718 50.1854 245.445 49.33 246.185 48.9153L247.224 48.2542C247.582 48.7986 248.083 49.4985 248.727 50.3539C249.395 51.1834 250.696 52.2851 252.629 53.659C254.587 55.0329 256.269 55.7199 257.677 55.7199C259.086 55.7199 260.052 55.4865 260.577 55.02C261.126 54.5533 261.401 54.0349 261.401 53.4646C261.401 52.4018 260.506 51.2871 258.716 50.1206C256.902 48.9282 254.933 47.8265 252.808 46.8156C250.684 45.7787 248.727 44.2622 246.937 42.2662C245.123 40.2702 244.216 38.002 244.216 35.4616C244.216 32.9212 244.92 30.4975 246.329 28.1904C247.737 25.8833 249.384 24.2632 251.269 23.33C251.555 21.334 252.713 19.5972 254.742 18.1196C256.77 16.6161 259.336 15.8644 262.439 15.8644C265.542 15.8644 268.036 16.6421 269.921 18.1974C271.807 19.7528 272.749 21.8395 272.749 24.4576C272.749 27.0758 272.403 28.9681 271.711 30.1346C271.019 31.327 269.933 32.2602 268.453 32.9342C265.923 29.9013 261.651 28.0738 255.637 27.4516V28.2682Z" fill="url(#paint0_linear_112_50)"/>
<defs>
<linearGradient id="paint0_linear_112_50" x1="136.5" y1="0.342145" x2="136.5" y2="78" gradientUnits="userSpaceOnUse">
<stop stop-color="#000934"/>
<stop offset="0.453704" stop-color="#1624A1"/>
<stop offset="1" stop-color="#A2BDF2"/>
</linearGradient>
</defs>
</svg>
