<svg width="115" height="30" viewBox="0 0 115 30" fill="none" xmlns="http://www.w3.org/2000/svg">
<path fill-rule="evenodd" clip-rule="evenodd" d="M14.8953 13.4895C15.0349 14.7657 15.1047 15.6431 15.1047 16.1216C15.1047 16.6002 14.9402 17.1236 14.6112 17.6919C14.2722 18.2702 13.7089 18.5593 12.9212 18.5593H8.61413C8.68396 20.6431 8.81357 22.2233 9.00298 23.3001C8.57428 24.1376 7.61713 24.7358 6.13161 25.0947C5.53337 25.2343 4.82551 25.3041 4.00797 25.3041C3.18043 25.3041 2.43769 25.01 1.77966 24.4217C1.12164 23.8335 0.81754 23.1954 0.867378 22.5075C0.867378 18.7288 1.03191 13.8834 1.36092 7.97109C0.832509 7.87138 0.533388 7.79661 0.463606 7.74676C0.154535 6.95913 0 5.90229 0 4.57627C0 3.25025 0.358909 2.15354 1.07677 1.28614C1.79459 0.428714 2.80158 0 4.09769 0C4.23726 0 4.48654 0 4.84545 0C5.20436 0 6.46063 0.0598219 8.61413 0.179454C10.7677 0.299098 13.0309 0.35892 15.4038 0.35892C15.663 1.07677 15.7926 2.22333 15.7926 3.79861C15.7926 5.38385 15.4935 6.62014 14.8953 7.50747C14.2971 8.38485 13.315 8.82352 11.9491 8.82352C10.5832 8.82352 9.42172 8.80359 8.46461 8.76371V13.6092C10.668 13.5294 12.8115 13.4895 14.8953 13.4895ZM20.4455 25.3041C18.4814 25.3041 17.4994 23.8933 17.4994 21.0718V10.3041L16.7067 7.82153C16.8065 7.70189 16.946 7.54735 17.1255 7.35792C17.305 7.1685 17.6938 6.91924 18.292 6.61017C18.8902 6.29112 19.5084 6.1316 20.1464 6.1316C21.6619 6.1316 22.5741 7.08873 22.8832 9.00299C24.0497 7.18843 25.4405 6.28115 27.0557 6.28115C28.6708 6.28115 29.4784 7.04885 29.4784 8.58425C29.4784 9.92024 29.1943 11.017 28.626 11.8744C28.0976 12.6421 27.5442 13.2552 26.966 13.7139C25.8493 12.7069 24.5233 12.0588 22.9879 11.7697V21.2812L23.7805 23.1206C23.6808 23.2802 23.5462 23.4796 23.3768 23.7188C23.2172 23.9581 22.8483 24.2822 22.27 24.6909C21.6918 25.0997 21.0836 25.3041 20.4455 25.3041ZM41.8118 20.1745C42.071 20.4337 42.2006 20.7777 42.2006 21.2064C42.2006 21.6451 42.0859 22.0837 41.8566 22.5224C41.6273 22.9611 41.2933 23.3898 40.8546 23.8086C40.4159 24.2273 39.7878 24.5813 38.9703 24.8704C38.1527 25.1595 37.2604 25.3041 36.2933 25.3041C35.3262 25.3041 34.4588 25.1645 33.6911 24.8853C32.9234 24.6162 32.1956 24.1825 31.5077 23.5842C30.0022 22.2383 29.2494 20.0498 29.2494 17.0189C29.2494 13.9781 29.7629 11.7198 30.7898 10.2443C31.8167 8.77866 32.9882 7.97109 34.3043 7.82153C35.2614 6.79462 36.4179 6.28115 37.7739 6.28115C39.1198 6.28115 40.2165 6.76969 41.064 7.74676C41.9214 8.73379 42.3501 10.0748 42.3501 11.7697C42.3501 13.7537 41.6173 15.324 40.1517 16.4806C38.9553 17.4377 37.5196 18.1655 35.8446 18.664C36.6821 19.7607 38.073 20.3091 40.0171 20.3091C40.5655 20.3091 41.1637 20.2642 41.8118 20.1745ZM37.3551 13.5344C37.3551 12.0688 36.4578 11.2662 34.6632 11.1266V14.3569C34.6632 15.4337 34.7579 16.2961 34.9474 16.9442C36.5525 16.0568 37.3551 14.9202 37.3551 13.5344ZM55.5985 20.1745C55.8577 20.4337 55.9873 20.7777 55.9873 21.2064C55.9873 21.6451 55.8727 22.0837 55.6434 22.5224C55.4141 22.9611 55.0801 23.3898 54.6414 23.8086C54.2027 24.2273 53.5746 24.5813 52.757 24.8704C51.9395 25.1595 51.0472 25.3041 50.0801 25.3041C49.113 25.3041 48.2456 25.1645 47.4779 24.8853C46.7102 24.6162 45.9823 24.1825 45.2944 23.5842C43.789 22.2383 43.0362 20.0498 43.0362 17.0189C43.0362 13.9781 43.5497 11.7198 44.5766 10.2443C45.6035 8.77866 46.775 7.97109 48.091 7.82153C49.0482 6.79462 50.2047 6.28115 51.5606 6.28115C52.9066 6.28115 54.0033 6.76969 54.8508 7.74676C55.7082 8.73379 56.1369 10.0748 56.1369 11.7697C56.1369 13.7537 55.4041 15.324 53.9385 16.4806C52.7421 17.4377 51.3064 18.1655 49.6314 18.664C50.4689 19.7607 51.8597 20.3091 53.8039 20.3091C54.3523 20.3091 54.9504 20.2642 55.5985 20.1745ZM51.1419 13.5344C51.1419 12.0688 50.2446 11.2662 48.45 11.1266V14.3569C48.45 15.4337 48.5447 16.2961 48.7341 16.9442C50.3393 16.0568 51.1419 14.9202 51.1419 13.5344ZM63.3434 29.2223C62.5757 29.7408 61.6784 30 60.6515 30C59.6246 30 58.9017 29.8006 58.483 29.4018C58.0642 28.993 57.8549 28.335 57.8549 27.4277V10.3041L57.0622 7.82153C57.162 7.70189 57.3015 7.54735 57.481 7.35792C57.6605 7.1685 58.0493 6.91924 58.6475 6.61017C59.2457 6.29112 59.8639 6.1316 60.5019 6.1316C61.7482 6.1316 62.5857 6.81455 63.0144 8.18046C64.2906 6.91425 65.7113 6.28115 67.2766 6.28115C68.8419 6.28115 70.0483 6.7647 70.8957 7.7318C71.7432 8.6989 72.1669 9.98505 72.1669 11.5902V16.2562C72.1669 18.4596 71.3095 20.5184 69.5946 22.4327C67.8698 24.347 65.9556 25.3041 63.8519 25.3041H63.3434V29.2223ZM63.3434 20.7129C63.7023 21.002 64.1709 21.1466 64.7492 21.1466C65.3175 21.1466 65.7811 20.9671 66.14 20.6082C66.4989 20.2493 66.6784 19.7458 66.6784 19.0977V13.8933C66.6784 12.6271 66.3693 11.7647 65.7512 11.3061C65.3624 11.0668 64.9685 10.9472 64.5697 10.9472C64.161 10.9472 63.7522 11.007 63.3434 11.1266V20.7129ZM81.0578 14.5065C81.0578 12.8016 80.1156 11.9492 78.2312 11.9492C77.1545 11.9492 76.0278 12.2981 74.8514 12.996C74.4725 12.6072 74.2831 12.1336 74.2831 11.5753C74.2831 11.017 74.4426 10.4387 74.7617 9.84048C75.0907 9.24227 75.5244 8.67397 76.0628 8.1356C76.6011 7.59721 77.2891 7.15354 78.1266 6.80458C78.9641 6.45563 79.8464 6.28115 80.7736 6.28115C82.638 6.28115 84.0737 6.86939 85.0807 8.04586C86.0877 9.21236 86.5911 10.8873 86.5911 13.0708V21.2812L87.3838 23.1206C87.2841 23.2802 87.1495 23.4796 86.98 23.7188C86.8205 23.9581 86.4516 24.2822 85.8733 24.6909C85.2951 25.0997 84.6968 25.3041 84.0787 25.3041C82.5234 25.3041 81.5762 24.4417 81.2372 22.7168C80.4496 24.4417 79.3579 25.3041 77.962 25.3041C76.5563 25.3041 75.4895 24.8654 74.7617 23.988C74.0339 23.1206 73.6699 21.9791 73.6699 20.5633C73.6699 16.9043 76.1325 14.9651 81.0578 14.7458V14.5065ZM78.1565 19.2323C78.1565 20.1695 78.4805 20.7677 79.1285 21.0269C79.2681 21.1067 79.4227 21.1466 79.5922 21.1466C80.0707 21.1466 80.5593 20.8674 81.0578 20.3091V16.3609C79.1236 16.8195 78.1565 17.7767 78.1565 19.2323ZM93.3051 10.8724C93.3051 11.8295 94.1675 12.6919 95.8923 13.4596C96.5902 13.7986 97.2931 14.1625 98.001 14.5513C98.6989 14.9502 99.3021 15.5234 99.8106 16.2712C100.309 17.0289 100.558 17.9462 100.558 19.0229C100.558 20.9172 99.9202 22.4377 98.6441 23.5842C97.3579 24.7308 95.7777 25.3041 93.9033 25.3041C92.0289 25.3041 90.5733 24.8903 89.5364 24.0628C88.5095 23.2353 87.996 22.3679 87.996 21.4606C87.996 20.8425 88.1456 20.2891 88.4447 19.8006C88.7438 19.3021 89.0479 18.9731 89.3569 18.8136L89.7907 18.5593C89.9402 18.7687 90.1496 19.0379 90.4187 19.3669C90.6979 19.6859 91.2413 20.1097 92.0488 20.6381C92.8664 21.1665 93.5693 21.4307 94.1575 21.4307C94.7458 21.4307 95.1495 21.341 95.3689 21.1615C95.5982 20.9821 95.7129 20.7827 95.7129 20.5633C95.7129 20.1545 95.339 19.7258 94.5912 19.2772C93.8335 18.8185 93.011 18.3948 92.1236 18.006C91.2363 17.6072 90.4187 17.0239 89.671 16.2562C88.9133 15.4885 88.5344 14.6161 88.5344 13.6391C88.5344 12.662 88.8285 11.7298 89.4168 10.8425C90.005 9.95513 90.6929 9.332 91.4805 8.97308C91.6002 8.20538 92.0838 7.53739 92.9312 6.96909C93.7787 6.39082 94.8505 6.1017 96.1466 6.1017C97.4427 6.1017 98.4846 6.4008 99.2722 6.999C100.06 7.59721 100.454 8.3998 100.454 9.40678C100.454 10.4138 100.309 11.1416 100.02 11.5902C99.7308 12.0489 99.2772 12.4078 98.659 12.667C97.6022 11.5005 95.8176 10.7976 93.3051 10.5583V10.8724ZM106.788 10.8724C106.788 11.8295 107.651 12.6919 109.375 13.4596C110.073 13.7986 110.776 14.1625 111.484 14.5513C112.182 14.9502 112.785 15.5234 113.294 16.2712C113.792 17.0289 114.041 17.9462 114.041 19.0229C114.041 20.9172 113.403 22.4377 112.127 23.5842C110.841 24.7308 109.261 25.3041 107.386 25.3041C105.512 25.3041 104.056 24.8903 103.019 24.0628C101.992 23.2353 101.479 22.3679 101.479 21.4606C101.479 20.8425 101.629 20.2891 101.928 19.8006C102.227 19.3021 102.531 18.9731 102.84 18.8136L103.274 18.5593C103.423 18.7687 103.633 19.0379 103.902 19.3669C104.181 19.6859 104.724 20.1097 105.532 20.6381C106.349 21.1665 107.052 21.4307 107.641 21.4307C108.229 21.4307 108.633 21.341 108.852 21.1615C109.081 20.9821 109.196 20.7827 109.196 20.5633C109.196 20.1545 108.822 19.7258 108.074 19.2772C107.316 18.8185 106.494 18.3948 105.607 18.006C104.719 17.6072 103.902 17.0239 103.154 16.2562C102.396 15.4885 102.017 14.6161 102.017 13.6391C102.017 12.662 102.312 11.7298 102.9 10.8425C103.488 9.95513 104.176 9.332 104.964 8.97308C105.083 8.20538 105.567 7.53739 106.414 6.96909C107.262 6.39082 108.333 6.1017 109.63 6.1017C110.926 6.1017 111.968 6.4008 112.755 6.999C113.543 7.59721 113.937 8.3998 113.937 9.40678C113.937 10.4138 113.792 11.1416 113.503 11.5902C113.214 12.0489 112.76 12.4078 112.142 12.667C111.085 11.5005 109.301 10.7976 106.788 10.5583V10.8724Z" fill="white"/>
</svg>
