<svg width="151" height="32" viewBox="0 0 151 32" fill="none" xmlns="http://www.w3.org/2000/svg">
<path d="M29.007 19.7097C25.522 21.9853 16.6754 17.2331 16.6313 20.394C16.6224 21.0351 16.6164 21.5743 16.6125 22.0264C16.6137 23.114 16.6146 23.9318 16.615 24.2364C16.615 24.2364 16.5974 23.8033 16.6125 22.0264C16.6164 21.5743 16.6224 21.0351 16.6313 20.394C16.6754 17.2331 25.522 21.9853 29.007 19.7097C32.6869 17.3068 33.2963 12.6231 29.007 10.7617C26.3073 9.59008 22.5785 10.2631 22.044 10.5C21.5095 10.7369 20.0966 11.8473 20.3184 12.6053C20.4729 13.1335 20.8385 13.7093 20.8385 13.7093L22.2495 14.5431C23.254 14.0319 24.4265 13.4836 24.4265 13.7093V15.9989C24.4265 15.9989 19.6934 15.9989 20.8385 15.2883C20.8385 15.2883 21.4968 14.9262 22.2495 14.5431L20.8385 13.7093C20.8385 13.7093 20.4729 13.1335 20.3184 12.6053C20.0966 11.8473 21.5095 10.7369 22.044 10.5C22.5785 10.2631 26.3073 9.59008 29.007 10.7617C33.2963 12.6231 32.6869 17.3068 29.007 19.7097Z" fill="url(#paint0_linear_108_39)"/>
<path d="M16.6313 20.394L14.8815 20.3696L16.6313 20.394ZM29.007 19.7097L28.0502 18.2444L28.0502 18.2444L29.007 19.7097ZM29.007 10.7617L28.3103 12.367L28.3103 12.367L29.007 10.7617ZM22.044 10.5L21.335 8.90007L21.335 8.90007L22.044 10.5ZM20.3184 12.6053L18.6388 13.0966L18.6388 13.0966L20.3184 12.6053ZM20.8385 13.7093L19.3612 14.6473L19.5864 15.002L19.9481 15.2158L20.8385 13.7093ZM22.4417 14.6567L23.0831 16.2849L26.4151 14.9721L23.332 13.1501L22.4417 14.6567ZM20.8385 15.2883L19.995 13.755L19.9548 13.7771L19.9158 13.8013L20.8385 15.2883ZM24.4265 15.9989L24.4265 17.7489L26.1765 17.7489V15.9989H24.4265ZM16.615 24.2364L18.365 24.2398L18.365 24.2338L16.615 24.2364ZM18.3811 20.4184C18.38 20.497 18.3123 20.7909 18.0362 20.9841C17.8801 21.0934 17.8392 21.0347 18.1614 21.0222C18.8058 20.9972 19.7995 21.1702 21.1993 21.4386C22.4915 21.6863 24.0492 21.9951 25.5085 22.0792C26.9249 22.1609 28.6072 22.0608 29.9638 21.175L28.0502 18.2444C27.6643 18.4964 26.9338 18.6556 25.71 18.5851C24.529 18.517 23.2188 18.262 21.8582 18.0012C20.6053 17.761 19.1612 17.4808 18.0257 17.5249C17.4578 17.5469 16.6913 17.6534 16.0294 18.1166C15.2475 18.6638 14.8936 19.5007 14.8815 20.3696L18.3811 20.4184ZM29.9638 21.175C32.176 19.7305 33.6375 17.4866 33.7437 15.1108C33.8555 12.6093 32.4447 10.3458 29.7037 9.15632L28.3103 12.367C29.8586 13.0389 30.2877 14.0481 30.2472 14.9545C30.201 15.9866 29.5179 17.2861 28.0502 18.2444L29.9638 21.175ZM29.7037 9.15632C28.0096 8.42115 26.1021 8.29794 24.6463 8.35396C23.9 8.38268 23.2254 8.46048 22.6891 8.55019C22.2204 8.62859 21.6908 8.74243 21.335 8.90007L22.753 12.1C22.6646 12.1392 22.8014 12.08 23.2666 12.0022C23.6641 11.9357 24.1906 11.8741 24.7808 11.8514C25.9979 11.8045 27.3047 11.9306 28.3103 12.367L29.7037 9.15632ZM21.335 8.90007C20.8156 9.13027 20.1509 9.61685 19.6453 10.1349C19.3818 10.4048 19.0803 10.7646 18.8612 11.1931C18.6522 11.6018 18.4056 12.2997 18.6388 13.0966L21.998 12.1139C22.0589 12.3222 22.05 12.5005 22.0297 12.6145C22.0105 12.7222 21.98 12.7816 21.9774 12.7866C21.9737 12.7937 21.9826 12.7753 22.0154 12.7325C22.0471 12.6911 22.0916 12.6393 22.15 12.5795C22.2689 12.4577 22.413 12.3356 22.5505 12.235C22.6177 12.1859 22.6754 12.1477 22.7187 12.1213C22.7668 12.092 22.7775 12.0891 22.753 12.1L21.335 8.90007ZM18.6388 13.0966C18.7642 13.5254 18.9562 13.9209 19.0884 14.1716C19.1591 14.3056 19.2236 14.4186 19.2715 14.4998C19.2955 14.5407 19.3158 14.5742 19.3311 14.5991C19.3388 14.6115 19.3452 14.6219 19.3502 14.63C19.3528 14.634 19.355 14.6375 19.3568 14.6404C19.3577 14.6418 19.3585 14.6431 19.3593 14.6443C19.3596 14.6449 19.36 14.6454 19.3603 14.6459C19.3604 14.6462 19.3606 14.6464 19.3607 14.6467C19.3608 14.6468 19.3609 14.6469 19.361 14.647C19.3611 14.6472 19.3612 14.6473 20.8385 13.7093C22.3158 12.7712 22.3159 12.7713 22.316 12.7715C22.3161 12.7715 22.3162 12.7717 22.3162 12.7718C22.3164 12.772 22.3165 12.7722 22.3166 12.7724C22.3168 12.7727 22.317 12.7731 22.3172 12.7734C22.3176 12.774 22.3179 12.7744 22.3181 12.7748C22.3185 12.7755 22.3187 12.7757 22.3185 12.7754C22.3181 12.7747 22.3165 12.7722 22.3139 12.7679C22.3085 12.7592 22.2991 12.7436 22.2865 12.7223C22.261 12.679 22.2244 12.615 22.1844 12.5391C22.0951 12.3698 22.0271 12.2134 21.998 12.1139L18.6388 13.0966ZM19.9481 15.2158L21.3591 16.0497L23.1399 13.0366L21.7289 12.2027L19.9481 15.2158ZM21.3591 16.0497L21.5513 16.1633L23.332 13.1501L23.1399 13.0366L21.3591 16.0497ZM21.8002 13.0285L20.197 13.6601L21.48 16.9165L23.0831 16.2849L21.8002 13.0285ZM20.8385 15.2883C21.682 16.8216 21.682 16.8216 21.6819 16.8216C21.6819 16.8217 21.6819 16.8217 21.6819 16.8217C21.6819 16.8217 21.6819 16.8217 21.6819 16.8217C21.6819 16.8217 21.682 16.8216 21.682 16.8216C21.6822 16.8215 21.6825 16.8213 21.683 16.8211C21.684 16.8205 21.6856 16.8196 21.6878 16.8184C21.6922 16.816 21.699 16.8123 21.7081 16.8073C21.7263 16.7974 21.7535 16.7825 21.7888 16.7633C21.8594 16.7249 21.9619 16.6695 22.0874 16.6023C22.3392 16.4676 22.6808 16.2872 23.0432 16.1028L21.4558 12.9835C21.0655 13.1821 20.7016 13.3743 20.4361 13.5164C20.303 13.5876 20.1938 13.6467 20.1174 13.6882C20.0792 13.7089 20.0492 13.7253 20.0284 13.7367C20.0181 13.7424 20.01 13.7468 20.0044 13.7499C20.0016 13.7514 19.9994 13.7526 19.9978 13.7535C19.997 13.7539 19.9964 13.7543 19.9959 13.7545C19.9957 13.7546 19.9955 13.7547 19.9953 13.7548C19.9953 13.7549 19.9952 13.7549 19.9951 13.7549C19.9951 13.755 19.9951 13.755 19.9951 13.755C19.995 13.755 19.995 13.755 20.8385 15.2883ZM23.0432 16.1028C23.5381 15.8509 24.0311 15.6125 24.3823 15.4675C24.5772 15.3871 24.6367 15.3743 24.604 15.3815C24.5875 15.3851 24.5405 15.395 24.4718 15.4013C24.4125 15.4067 24.2721 15.4161 24.0897 15.3861C23.9203 15.3582 23.5562 15.2703 23.2182 14.9544C22.8269 14.5887 22.6765 14.113 22.6765 13.7093H26.1765C26.1765 13.2773 26.017 12.7795 25.608 12.3973C25.2523 12.0648 24.8621 11.9661 24.6586 11.9326C24.2788 11.87 23.9554 11.9405 23.8513 11.9634C23.5674 12.0259 23.2709 12.1399 23.0471 12.2322C22.5609 12.4328 21.9654 12.7241 21.4558 12.9835L23.0432 16.1028ZM22.6765 13.7093V15.9989H26.1765V13.7093H22.6765ZM24.4265 15.9989C24.4265 14.2489 24.4266 14.2489 24.4267 14.2489C24.4267 14.2489 24.4268 14.2489 24.4268 14.2489C24.4269 14.2489 24.4268 14.2489 24.4267 14.2489C24.4265 14.2489 24.426 14.2489 24.4252 14.2489C24.4236 14.2489 24.421 14.2489 24.4172 14.2489C24.4098 14.2489 24.3981 14.2488 24.3825 14.2487C24.3512 14.2486 24.3044 14.2483 24.2445 14.2476C24.1245 14.2463 23.9531 14.2437 23.7505 14.2384C23.3406 14.2277 22.8232 14.2067 22.352 14.1664C22.1162 14.1463 21.9088 14.1227 21.7415 14.0965C21.5569 14.0676 21.4894 14.0457 21.4992 14.0492C21.501 14.0498 21.5999 14.0828 21.732 14.1731C21.8411 14.2476 22.1911 14.5089 22.3439 15.033C22.5249 15.6536 22.3028 16.1698 22.108 16.4391C21.9443 16.6653 21.7752 16.7666 21.7612 16.7753L19.9158 13.8013C19.7587 13.8988 19.4923 14.0834 19.2722 14.3877C19.0209 14.7351 18.7831 15.3241 18.9839 16.0128C19.1565 16.6049 19.5619 16.9292 19.7568 17.0624C19.9746 17.2114 20.1897 17.2985 20.3328 17.3491C20.854 17.5333 21.5494 17.6106 22.0542 17.6537C22.6232 17.7023 23.2175 17.7257 23.6593 17.7372C23.8825 17.743 24.0719 17.7459 24.2063 17.7474C24.2736 17.7481 24.3273 17.7485 24.3648 17.7487C24.3836 17.7488 24.3983 17.7488 24.4087 17.7489C24.4139 17.7489 24.418 17.7489 24.421 17.7489C24.4225 17.7489 24.4237 17.7489 24.4246 17.7489C24.4251 17.7489 24.4255 17.7489 24.4258 17.7489C24.426 17.7489 24.4261 17.7489 24.4262 17.7489C24.4264 17.7489 24.4265 17.7489 24.4265 15.9989ZM16.6016 11.1316C14.8516 11.1333 14.8516 11.1333 14.8516 11.1334C14.8516 11.1334 14.8516 11.1335 14.8516 11.1336C14.8516 11.1338 14.8516 11.1342 14.8516 11.1346C14.8516 11.1355 14.8516 11.1367 14.8516 11.1385C14.8516 11.1419 14.8516 11.147 14.8516 11.1538C14.8516 11.1673 14.8516 11.1875 14.8516 11.2139C14.8517 11.2668 14.8518 11.3449 14.8519 11.4456C14.8521 11.647 14.8524 11.939 14.8527 12.3012C14.8534 13.0257 14.8544 14.0313 14.8555 15.1556C14.8578 17.4043 14.8605 20.128 14.8625 22.0283L18.3625 22.0246C18.3605 20.1245 18.3578 17.4008 18.3555 15.1521C18.3544 14.0278 18.3534 13.0222 18.3527 12.2978C18.3524 11.9355 18.3521 11.6435 18.3519 11.4421C18.3518 11.3414 18.3517 11.2634 18.3516 11.2105C18.3516 11.184 18.3516 11.1639 18.3516 11.1503C18.3516 11.1436 18.3516 11.1385 18.3516 11.135C18.3516 11.1333 18.3516 11.132 18.3516 11.1312C18.3516 11.1307 18.3516 11.1304 18.3516 11.1302C18.3516 11.1301 18.3516 11.13 18.3516 11.13C18.3516 11.1299 18.3516 11.1299 16.6016 11.1316ZM14.8625 22.0283C14.8637 23.1157 14.8646 23.9339 14.865 24.2389L18.365 24.2338C18.3646 23.9297 18.3637 23.1123 18.3625 22.0246L14.8625 22.0283ZM16.615 24.2364C18.3636 24.165 18.3636 24.1652 18.3636 24.1654C18.3636 24.1654 18.3636 24.1656 18.3636 24.1657C18.3636 24.1659 18.3636 24.1661 18.3636 24.1663C18.3636 24.1667 18.3636 24.1671 18.3637 24.1674C18.3637 24.1681 18.3637 24.1686 18.3637 24.1691C18.3638 24.1699 18.3638 24.1703 18.3638 24.1701C18.3638 24.1697 18.3637 24.1673 18.3635 24.1625C18.3632 24.1529 18.3627 24.1342 18.3621 24.1046C18.3609 24.0453 18.3592 23.9434 18.358 23.7844C18.3556 23.466 18.3549 22.9233 18.3625 22.0414L14.8626 22.0115C14.8549 22.9064 14.8555 23.4687 14.8581 23.8111C14.8594 23.9824 14.8613 24.0999 14.8629 24.1772C14.8637 24.216 14.8644 24.2451 14.8651 24.2661C14.8654 24.2766 14.8656 24.2852 14.8659 24.292C14.866 24.2954 14.8661 24.2984 14.8662 24.301C14.8663 24.3023 14.8663 24.3035 14.8664 24.3046C14.8664 24.3052 14.8664 24.3057 14.8664 24.3062C14.8664 24.3065 14.8664 24.3067 14.8664 24.307C14.8665 24.3071 14.8665 24.3073 14.8665 24.3073C14.8665 24.3075 14.8665 24.3077 16.615 24.2364ZM18.3625 22.0414C18.3663 21.5928 18.3722 21.0568 18.3811 20.4184L14.8815 20.3696C14.8725 21.0135 14.8665 21.5558 14.8626 22.0115L18.3625 22.0414ZM18.3516 31.0824L18.365 24.2398L14.865 24.2329L14.8516 31.0755L18.3516 31.0824Z" fill="url(#paint1_linear_108_39)"/>
<path d="M11.2526 14.7479L11.7093 13.3191L9.7526 12.6936V14.7479H11.2526ZM16.7946 14.7479L15.7402 13.681L16.7946 14.7479ZM16.7946 11.2215L15.7402 12.2884L16.7946 11.2215ZM11.2526 11.2215L9.851 11.7559L10.3568 13.0827L11.7093 12.6503L11.2526 11.2215ZM3.28814 8.95841L2.03578 9.78399L2.06324 9.82565L2.09341 9.8654L3.28814 8.95841ZM4.10105 10.0292L2.90632 10.9362L2.93923 10.9795L2.97518 11.0204L4.10105 10.0292ZM5.64416 11.2215L5.37339 12.6969L7.83489 13.1487L7.07295 10.7649L5.64416 11.2215ZM5.09663 9.81868L4.16487 10.9942L4.16487 10.9942L5.09663 9.81868ZM3.76919 10.7661L2.3387 10.3147L3.76919 10.7661ZM4.02473 13.2742C4.02475 12.5439 4.02477 12.176 4.02478 12.0938C4.02478 12.0886 4.02478 12.0847 4.02479 12.0818C4.02479 12.0804 4.02479 12.0793 4.02479 12.0785C4.02479 12.0775 4.02479 12.0773 4.02479 12.0774C4.02479 12.0776 4.02478 12.0792 4.02478 12.0805C2.53466 13.5754 1.02486 12.0896 1.02479 12.0791C1.02479 12.0775 1.02479 12.0763 1.02479 12.0776C1.02479 12.0787 1.02479 12.0809 1.02479 12.0844C1.02479 12.0982 1.0248 12.1286 1.0248 12.1747C1.0248 12.2667 1.02481 12.4205 1.02481 12.6266C1.02482 13.451 1.02481 15.1114 1.0248 16.9946C1.02478 20.761 1.02473 25.4189 1.02473 26.0637H4.02473C4.02473 25.4189 4.02478 20.7611 4.0248 16.9946C4.02481 15.1114 4.02482 13.451 4.02481 12.6266C4.02481 12.4205 4.0248 12.2666 4.0248 12.1745C4.0248 12.1285 4.02479 12.0978 4.02479 12.0838C4.02479 12.0803 4.02479 12.0777 4.02479 12.076C4.02479 12.0759 4.02479 12.0739 4.02478 12.072C4.02472 12.0613 2.51491 10.5755 1.0248 12.0705C1.02479 12.0719 1.02479 12.0738 1.02479 12.0744C1.02479 12.0767 1.02478 12.0834 1.02478 12.0933C1.02477 12.1758 1.02475 12.544 1.02473 13.2741L4.02473 13.2742ZM1.02473 26.0637C1.02473 27.1479 1.91092 27.6685 2.20716 27.8227C2.62435 28.0399 3.12018 28.1791 3.58081 28.2756C4.52864 28.4742 5.72607 28.5714 6.87736 28.5801C8.0267 28.5887 9.2314 28.51 10.1894 28.3141C10.6549 28.2189 11.1642 28.0763 11.5946 27.8421C11.9513 27.648 12.7526 27.1082 12.7526 26.0637H9.7526C9.7526 25.3745 10.2812 25.1414 10.1605 25.207C10.1136 25.2326 9.94112 25.3028 9.5883 25.3749C8.90986 25.5137 7.93259 25.5879 6.89997 25.5802C5.86929 25.5724 4.88475 25.4837 4.1961 25.3394C3.8385 25.2645 3.65246 25.1929 3.59235 25.1616C3.41128 25.0674 4.02473 25.3018 4.02473 26.0637H1.02473ZM12.7526 26.0637C12.7526 26.0609 12.7526 26.0581 12.7526 26.0552C12.7526 26.0524 12.7526 26.0495 12.7526 26.0466C12.7526 26.0437 12.7526 26.0408 12.7526 26.0378C12.7526 26.0349 12.7526 26.0319 12.7526 26.0288C12.7526 26.0258 12.7526 26.0227 12.7526 26.0196C12.7526 26.0165 12.7526 26.0134 12.7526 26.0103C12.7526 26.0071 12.7526 26.0039 12.7526 26.0007C12.7526 25.9975 12.7526 25.9942 12.7526 25.9909C12.7526 25.9876 12.7526 25.9843 12.7526 25.981C12.7526 25.9776 12.7526 25.9743 12.7526 25.9708C12.7526 25.9674 12.7526 25.964 12.7526 25.9605C12.7526 25.9571 12.7526 25.9536 12.7526 25.95C12.7526 25.9465 12.7526 25.9429 12.7526 25.9393C12.7526 25.9357 12.7526 25.9321 12.7526 25.9285C12.7526 25.9248 12.7526 25.9211 12.7526 25.9174C12.7526 25.9137 12.7526 25.91 12.7526 25.9062C12.7526 25.9024 12.7526 25.8986 12.7526 25.8948C12.7526 25.8909 12.7526 25.8871 12.7526 25.8832C12.7526 25.8793 12.7526 25.8754 12.7526 25.8714C12.7526 25.8674 12.7526 25.8635 12.7526 25.8594C12.7526 25.8554 12.7526 25.8514 12.7526 25.8473C12.7526 25.8432 12.7526 25.8391 12.7526 25.835C12.7526 25.8309 12.7526 25.8267 12.7526 25.8225C12.7526 25.8183 12.7526 25.8141 12.7526 25.8099C12.7526 25.8056 12.7526 25.8013 12.7526 25.797C12.7526 25.7927 12.7526 25.7884 12.7526 25.784C12.7526 25.7797 12.7526 25.7753 12.7526 25.7709C12.7526 25.7664 12.7526 25.762 12.7526 25.7575C12.7526 25.753 12.7526 25.7485 12.7526 25.744C12.7526 25.7395 12.7526 25.7349 12.7526 25.7303C12.7526 25.7257 12.7526 25.7211 12.7526 25.7164C12.7526 25.7118 12.7526 25.7071 12.7526 25.7024C12.7526 25.6977 12.7526 25.693 12.7526 25.6882C12.7526 25.6835 12.7526 25.6787 12.7526 25.6738C12.7526 25.669 12.7526 25.6642 12.7526 25.6593C12.7526 25.6544 12.7526 25.6496 12.7526 25.6446C12.7526 25.6397 12.7526 25.6347 12.7526 25.6298C12.7526 25.6248 12.7526 25.6198 12.7526 25.6147C12.7526 25.6097 12.7526 25.6046 12.7526 25.5996C12.7526 25.5945 12.7526 25.5894 12.7526 25.5842C12.7526 25.5791 12.7526 25.5739 12.7526 25.5687C12.7526 25.5635 12.7526 25.5583 12.7526 25.553C12.7526 25.5478 12.7526 25.5425 12.7526 25.5372C12.7526 25.5319 12.7526 25.5266 12.7526 25.5212C12.7526 25.5159 12.7526 25.5105 12.7526 25.5051C12.7526 25.4997 12.7526 25.4942 12.7526 25.4888C12.7526 25.4833 12.7526 25.4778 12.7526 25.4723C12.7526 25.4668 12.7526 25.4613 12.7526 25.4557C12.7526 25.4501 12.7526 25.4446 12.7526 25.4389C12.7526 25.4333 12.7526 25.4277 12.7526 25.422C12.7526 25.4164 12.7526 25.4107 12.7526 25.4049C12.7526 25.3992 12.7526 25.3935 12.7526 25.3877C12.7526 25.382 12.7526 25.3762 12.7526 25.3703C12.7526 25.3645 12.7526 25.3587 12.7526 25.3528C12.7526 25.3469 12.7526 25.3411 12.7526 25.3351C12.7526 25.3292 12.7526 25.3233 12.7526 25.3173C12.7526 25.3113 12.7526 25.3054 12.7526 25.2993C12.7526 25.2933 12.7526 25.2873 12.7526 25.2812C12.7526 25.2752 12.7526 25.2691 12.7526 25.263C12.7526 25.2568 12.7526 25.2507 12.7526 25.2445C12.7526 25.2384 12.7526 25.2322 12.7526 25.226C12.7526 25.2198 12.7526 25.2135 12.7526 25.2073C12.7526 25.201 12.7526 25.1947 12.7526 25.1884C12.7526 25.1821 12.7526 25.1758 12.7526 25.1694C12.7526 25.1631 12.7526 25.1567 12.7526 25.1503C12.7526 25.1439 12.7526 25.1375 12.7526 25.1311C12.7526 25.1246 12.7526 25.1181 12.7526 25.1116C12.7526 25.1051 12.7526 25.0986 12.7526 25.0921C12.7526 25.0856 12.7526 25.079 12.7526 25.0724C12.7526 25.0658 12.7526 25.0592 12.7526 25.0526C12.7526 25.046 12.7526 25.0393 12.7526 25.0326C12.7526 25.026 12.7526 25.0193 12.7526 25.0125C12.7526 25.0058 12.7526 24.9991 12.7526 24.9923C12.7526 24.9855 12.7526 24.9788 12.7526 24.9719C12.7526 24.9651 12.7526 24.9583 12.7526 24.9514C12.7526 24.9446 12.7526 24.9377 12.7526 24.9308C12.7526 24.9239 12.7526 24.917 12.7526 24.9101C12.7526 24.9031 12.7526 24.8961 12.7526 24.8892C12.7526 24.8822 12.7526 24.8752 12.7526 24.8681C12.7526 24.8611 12.7526 24.8541 12.7526 24.847C12.7526 24.8399 12.7526 24.8328 12.7526 24.8257C12.7526 24.8186 12.7526 24.8115 12.7526 24.8043C12.7526 24.7971 12.7526 24.79 12.7526 24.7828C12.7526 24.7756 12.7526 24.7684 12.7526 24.7611C12.7526 24.7539 12.7526 24.7466 12.7526 24.7393C12.7526 24.732 12.7526 24.7247 12.7526 24.7174C12.7526 24.7101 12.7526 24.7028 12.7526 24.6954C12.7526 24.688 12.7526 24.6806 12.7526 24.6732C12.7526 24.6658 12.7526 24.6584 12.7526 24.651C12.7526 24.6435 12.7526 24.6361 12.7526 24.6286C12.7526 24.6211 12.7526 24.6136 12.7526 24.6061C12.7526 24.5985 12.7526 24.591 12.7526 24.5834C12.7526 24.5759 12.7526 24.5683 12.7526 24.5607C12.7526 24.5531 12.7526 24.5454 12.7526 24.5378C12.7526 24.5301 12.7526 24.5225 12.7526 24.5148C12.7526 24.5071 12.7526 24.4994 12.7526 24.4917C12.7526 24.484 12.7526 24.4762 12.7526 24.4685C12.7526 24.4607 12.7526 24.4529 12.7526 24.4451C12.7526 24.4374 12.7526 24.4295 12.7526 24.4217C12.7526 24.4139 12.7526 24.406 12.7526 24.3981C12.7526 24.3903 12.7526 24.3824 12.7526 24.3745C12.7526 24.3666 12.7526 24.3586 12.7526 24.3507C12.7526 24.3427 12.7526 24.3348 12.7526 24.3268C12.7526 24.3188 12.7526 24.3108 12.7526 24.3028C12.7526 24.2948 12.7526 24.2867 12.7526 24.2787C12.7526 24.2706 12.7526 24.2626 12.7526 24.2545C12.7526 24.2464 12.7526 24.2383 12.7526 24.2301C12.7526 24.222 12.7526 24.2139 12.7526 24.2057C12.7526 24.1975 12.7526 24.1894 12.7526 24.1812C12.7526 24.173 12.7526 24.1648 12.7526 24.1565C12.7526 24.1483 12.7526 24.1401 12.7526 24.1318C12.7526 24.1235 12.7526 24.1152 12.7526 24.1069C12.7526 24.0986 12.7526 24.0903 12.7526 24.082C12.7526 24.0737 12.7526 24.0653 12.7526 24.0569C12.7526 24.0486 12.7526 24.0402 12.7526 24.0318C12.7526 24.0234 12.7526 24.015 12.7526 24.0065C12.7526 23.9981 12.7526 23.9897 12.7526 23.9812C12.7526 23.9727 12.7526 23.9642 12.7526 23.9557C12.7526 23.9472 12.7526 23.9387 12.7526 23.9302C12.7526 23.9217 12.7526 23.9131 12.7526 23.9046C12.7526 23.896 12.7526 23.8874 12.7526 23.8788C12.7526 23.8702 12.7526 23.8616 12.7526 23.853C12.7526 23.8444 12.7526 23.8357 12.7526 23.8271C12.7526 23.8184 12.7526 23.8097 12.7526 23.8011C12.7526 23.7924 12.7526 23.7837 12.7526 23.7749C12.7526 23.7662 12.7526 23.7575 12.7526 23.7487C12.7526 23.74 12.7526 23.7312 12.7526 23.7225C12.7526 23.7137 12.7526 23.7049 12.7526 23.6961C12.7526 23.6873 12.7526 23.6784 12.7526 23.6696C12.7526 23.6608 12.7526 23.6519 12.7526 23.643C12.7526 23.6342 12.7526 23.6253 12.7526 23.6164C12.7526 23.6075 12.7526 23.5986 12.7526 23.5897C12.7526 23.5807 12.7526 23.5718 12.7526 23.5629C12.7526 23.5539 12.7526 23.5449 12.7526 23.5359C12.7526 23.527 12.7526 23.518 12.7526 23.509C12.7526 23.5 12.7526 23.4909 12.7526 23.4819C12.7526 23.4729 12.7526 23.4638 12.7526 23.4547C12.7526 23.4457 12.7526 23.4366 12.7526 23.4275C12.7526 23.4184 12.7526 23.4093 12.7526 23.4002C12.7526 23.3911 12.7526 23.382 12.7526 23.3728C12.7526 23.3637 12.7526 23.3545 12.7526 23.3453C12.7526 23.3362 12.7526 23.327 12.7526 23.3178C12.7526 23.3086 12.7526 23.2994 12.7526 23.2902C12.7526 23.2809 12.7526 23.2717 12.7526 23.2625C12.7526 23.2532 12.7526 23.244 12.7526 23.2347C12.7526 23.2254 12.7526 23.2161 12.7526 23.2068C12.7526 23.1975 12.7526 23.1882 12.7526 23.1789C12.7526 23.1696 12.7526 23.1602 12.7526 23.1509C12.7526 23.1415 12.7526 23.1322 12.7526 23.1228C12.7526 23.1135 12.7526 23.1041 12.7526 23.0947C12.7526 23.0853 12.7526 23.0759 12.7526 23.0665C12.7526 23.057 12.7526 23.0476 12.7526 23.0382C12.7526 23.0287 12.7526 23.0193 12.7526 23.0098C12.7526 23.0004 12.7526 22.9909 12.7526 22.9814C12.7526 22.9719 12.7526 22.9624 12.7526 22.9529C12.7526 22.9434 12.7526 22.9339 12.7526 22.9243C12.7526 22.9148 12.7526 22.9053 12.7526 22.8957C12.7526 22.8862 12.7526 22.8766 12.7526 22.867C12.7526 22.8575 12.7526 22.8479 12.7526 22.8383C12.7526 22.8287 12.7526 22.8191 12.7526 22.8095C12.7526 22.7998 12.7526 22.7902 12.7526 22.7806C12.7526 22.7709 12.7526 22.7613 12.7526 22.7516C12.7526 22.742 12.7526 22.7323 12.7526 22.7226C12.7526 22.713 12.7526 22.7033 12.7526 22.6936C12.7526 22.6839 12.7526 22.6742 12.7526 22.6645C12.7526 22.6547 12.7526 22.645 12.7526 22.6353C12.7526 22.6255 12.7526 22.6158 12.7526 22.606C12.7526 22.5963 12.7526 22.5865 12.7526 22.5768C12.7526 22.567 12.7526 22.5572 12.7526 22.5474C12.7526 22.5376 12.7526 22.5278 12.7526 22.518C12.7526 22.5082 12.7526 22.4984 12.7526 22.4885C12.7526 22.4787 12.7526 22.4689 12.7526 22.459C12.7526 22.4492 12.7526 22.4393 12.7526 22.4295C12.7526 22.4196 12.7526 22.4097 12.7526 22.3998C12.7526 22.39 12.7526 22.3801 12.7526 22.3702C12.7526 22.3603 12.7526 22.3504 12.7526 22.3405C12.7526 22.3305 12.7526 22.3206 12.7526 22.3107C12.7526 22.3008 12.7526 22.2908 12.7526 22.2809C12.7526 22.2709 12.7526 22.261 12.7526 22.251C12.7526 22.241 12.7526 22.2311 12.7526 22.2211C12.7526 22.2111 12.7526 22.2011 12.7526 22.1911C12.7526 22.1811 12.7526 22.1711 12.7526 22.1611C12.7526 22.1511 12.7526 22.1411 12.7526 22.1311C12.7526 22.1211 12.7526 22.111 12.7526 22.101C12.7526 22.091 12.7526 22.0809 12.7526 22.0709C12.7526 22.0608 12.7526 22.0508 12.7526 22.0407C12.7526 22.0306 12.7526 22.0205 12.7526 22.0105C12.7526 22.0004 12.7526 21.9903 12.7526 21.9802C12.7526 21.9701 12.7526 21.96 12.7526 21.9499C12.7526 21.9398 12.7526 21.9297 12.7526 21.9196C12.7526 21.9095 12.7526 21.8993 12.7526 21.8892C12.7526 21.8791 12.7526 21.8689 12.7526 21.8588C12.7526 21.8486 12.7526 21.8385 12.7526 21.8283C12.7526 21.8182 12.7526 21.808 12.7526 21.7979C12.7526 21.7877 12.7526 21.7775 12.7526 21.7673C12.7526 21.7572 12.7526 21.747 12.7526 21.7368C12.7526 21.7266 12.7526 21.7164 12.7526 21.7062C12.7526 21.696 12.7526 21.6858 12.7526 21.6756C12.7526 21.6654 12.7526 21.6552 12.7526 21.6449C12.7526 21.6347 12.7526 21.6245 12.7526 21.6143C12.7526 21.604 12.7526 21.5938 12.7526 21.5836C12.7526 21.5733 12.7526 21.5631 12.7526 21.5528C12.7526 21.5426 12.7526 21.5323 12.7526 21.5221C12.7526 21.5118 12.7526 21.5015 12.7526 21.4913C12.7526 21.481 12.7526 21.4707 12.7526 21.4604C12.7526 21.4502 12.7526 21.4399 12.7526 21.4296C12.7526 21.4193 12.7526 21.409 12.7526 21.3987C12.7526 21.3884 12.7526 21.3781 12.7526 21.3678C12.7526 21.3575 12.7526 21.3472 12.7526 21.3369C12.7526 21.3266 12.7526 21.3163 12.7526 21.306C12.7526 21.2957 12.7526 21.2853 12.7526 21.275C12.7526 21.2647 12.7526 21.2544 12.7526 21.244C12.7526 21.2337 12.7526 21.2234 12.7526 21.213C12.7526 21.2027 12.7526 21.1924 12.7526 21.182C12.7526 21.1717 12.7526 21.1613 12.7526 21.151C12.7526 21.1406 12.7526 21.1303 12.7526 21.1199C12.7526 21.1096 12.7526 21.0992 12.7526 21.0889C12.7526 21.0785 12.7526 21.0681 12.7526 21.0578C12.7526 21.0474 12.7526 21.037 12.7526 21.0267C12.7526 21.0163 12.7526 21.0059 12.7526 20.9956C12.7526 20.9852 12.7526 20.9748 12.7526 20.9644C12.7526 20.954 12.7526 20.9437 12.7526 20.9333C12.7526 20.9229 12.7526 20.9125 12.7526 20.9021C12.7526 20.8917 12.7526 20.8813 12.7526 20.871C12.7526 20.8606 12.7526 20.8502 12.7526 20.8398C12.7526 20.8294 12.7526 20.819 12.7526 20.8086C12.7526 20.7982 12.7526 20.7878 12.7526 20.7774C12.7526 20.767 12.7526 20.7566 12.7526 20.7462C12.7526 20.7358 12.7526 20.7254 12.7526 20.715C12.7526 20.7046 12.7526 20.6942 12.7526 20.6838C12.7526 20.6734 12.7526 20.663 12.7526 20.6526C12.7526 20.6422 12.7526 20.6318 12.7526 20.6213C12.7526 20.6109 12.7526 20.6005 12.7526 20.5901C12.7526 20.5797 12.7526 20.5693 12.7526 20.5589C12.7526 20.5485 12.7526 20.5381 12.7526 20.5277C12.7526 20.5173 12.7526 20.5068 12.7526 20.4964C12.7526 20.486 12.7526 20.4756 12.7526 20.4652C12.7526 20.4548 12.7526 20.4444 12.7526 20.434C12.7526 20.4236 12.7526 20.4132 12.7526 20.4027C12.7526 20.3923 12.7526 20.3819 12.7526 20.3715C12.7526 20.3611 12.7526 20.3507 12.7526 20.3403C12.7526 20.3299 12.7526 20.3195 12.7526 20.3091C12.7526 20.2987 12.7526 20.2883 12.7526 20.2779C12.7526 20.2675 12.7526 20.2571 12.7526 20.2466C12.7526 20.2362 12.7526 20.2258 12.7526 20.2154C12.7526 20.205 12.7526 20.1946 12.7526 20.1843C12.7526 20.1739 12.7526 20.1635 12.7526 20.1531C12.7526 20.1427 12.7526 20.1323 12.7526 20.1219C12.7526 20.1115 12.7526 20.1011 12.7526 20.0907C12.7526 20.0803 12.7526 20.0699 12.7526 20.0596C12.7526 20.0492 12.7526 20.0388 12.7526 20.0284C12.7526 20.018 12.7526 20.0077 12.7526 19.9973C12.7526 19.9869 12.7526 19.9765 12.7526 19.9662C12.7526 19.9558 12.7526 19.9454 12.7526 19.935C12.7526 19.9247 12.7526 19.9143 12.7526 19.904C12.7526 19.8936 12.7526 19.8832 12.7526 19.8729C12.7526 19.8625 12.7526 19.8522 12.7526 19.8418C12.7526 19.8315 12.7526 19.8211 12.7526 19.8108C12.7526 19.8004 12.7526 19.7901 12.7526 19.7797C12.7526 19.7694 12.7526 19.7591 12.7526 19.7487C12.7526 19.7384 12.7526 19.7281 12.7526 19.7177C12.7526 19.7074 12.7526 19.6971 12.7526 19.6868C12.7526 19.6765 12.7526 19.6661 12.7526 19.6558C12.7526 19.6455 12.7526 19.6352 12.7526 19.6249C12.7526 19.6146 12.7526 19.6043 12.7526 19.594C12.7526 19.5837 12.7526 19.5734 12.7526 19.5631C12.7526 19.5528 12.7526 19.5425 12.7526 19.5323C12.7526 19.522 12.7526 19.5117 12.7526 19.5014C12.7526 19.4912 12.7526 19.4809 12.7526 19.4706C12.7526 19.4604 12.7526 19.4501 12.7526 19.4399C12.7526 19.4296 12.7526 19.4194 12.7526 19.4091C12.7526 19.3989 12.7526 19.3886 12.7526 19.3784C12.7526 19.3682 12.7526 19.3579 12.7526 19.3477C12.7526 19.3375 12.7526 19.3273 12.7526 19.317C12.7526 19.3068 12.7526 19.2966 12.7526 19.2864C12.7526 19.2762 12.7526 19.266 12.7526 19.2558C12.7526 19.2456 12.7526 19.2354 12.7526 19.2253C12.7526 19.2151 12.7526 19.2049 12.7526 19.1947C12.7526 19.1846 12.7526 19.1744 12.7526 19.1642C12.7526 19.1541 12.7526 19.1439 12.7526 19.1338C12.7526 19.1236 12.7526 19.1135 12.7526 19.1033C12.7526 19.0932 12.7526 19.0831 12.7526 19.073C12.7526 19.0628 12.7526 19.0527 12.7526 19.0426C12.7526 19.0325 12.7526 19.0224 12.7526 19.0123C12.7526 19.0022 12.7526 18.9921 12.7526 18.982C12.7526 18.9719 12.7526 18.9619 12.7526 18.9518C12.7526 18.9417 12.7526 18.9316 12.7526 18.9216C12.7526 18.9115 12.7526 18.9015 12.7526 18.8914C12.7526 18.8814 12.7526 18.8714 12.7526 18.8613C12.7526 18.8513 12.7526 18.8413 12.7526 18.8313C12.7526 18.8213 12.7526 18.8112 12.7526 18.8012C12.7526 18.7912 12.7526 18.7813 12.7526 18.7713C12.7526 18.7613 12.7526 18.7513 12.7526 18.7413C12.7526 18.7314 12.7526 18.7214 12.7526 18.7115C12.7526 18.7015 12.7526 18.6916 12.7526 18.6816C12.7526 18.6717 12.7526 18.6618 12.7526 18.6518C12.7526 18.6419 12.7526 18.632 12.7526 18.6221C12.7526 18.6122 12.7526 18.6023 12.7526 18.5924C12.7526 18.5825 12.7526 18.5726 12.7526 18.5628C12.7526 18.5529 12.7526 18.543 12.7526 18.5332C12.7526 18.5233 12.7526 18.5135 12.7526 18.5037C12.7526 18.4938 12.7526 18.484 12.7526 18.4742C12.7526 18.4644 12.7526 18.4545 12.7526 18.4447C12.7526 18.4349 12.7526 18.4252 12.7526 18.4154C12.7526 18.4056 12.7526 18.3958 12.7526 18.3861C12.7526 18.3763 12.7526 18.3665 12.7526 18.3568C12.7526 18.3471 12.7526 18.3373 12.7526 18.3276C12.7526 18.3179 12.7526 18.3082 12.7526 18.2985C12.7526 18.2887 12.7526 18.2791 12.7526 18.2694C12.7526 18.2597 12.7526 18.25 12.7526 18.2403C12.7526 18.2307 12.7526 18.221 12.7526 18.2114C12.7526 18.2017 12.7526 18.1921 12.7526 18.1825C12.7526 18.1729 12.7526 18.1632 12.7526 18.1536C12.7526 18.144 12.7526 18.1344 12.7526 18.1249C12.7526 18.1153 12.7526 18.1057 12.7526 18.0961C12.7526 18.0866 12.7526 18.077 12.7526 18.0675C12.7526 18.058 12.7526 18.0484 12.7526 18.0389C12.7526 18.0294 12.7526 18.0199 12.7526 18.0104C12.7526 18.0009 12.7526 17.9914 12.7526 17.9819C12.7526 17.9725 12.7526 17.963 12.7526 17.9536C12.7526 17.9441 12.7526 17.9347 12.7526 17.9253C12.7526 17.9158 12.7526 17.9064 12.7526 17.897C12.7526 17.8876 12.7526 17.8782 12.7526 17.8688C12.7526 17.8595 12.7526 17.8501 12.7526 17.8407C12.7526 17.8314 12.7526 17.822 12.7526 17.8127C12.7526 17.8034 12.7526 17.7941 12.7526 17.7847C12.7526 17.7754 12.7526 17.7661 12.7526 17.7569C12.7526 17.7476 12.7526 17.7383 12.7526 17.7291C12.7526 17.7198 12.7526 17.7106 12.7526 17.7013C12.7526 17.6921 12.7526 17.6829 12.7526 17.6737C12.7526 17.6645 12.7526 17.6553 12.7526 17.6461C12.7526 17.6369 12.7526 17.6277 12.7526 17.6186C12.7526 17.6094 12.7526 17.6003 12.7526 17.5912C12.7526 17.582 12.7526 17.5729 12.7526 17.5638C12.7526 17.5547 12.7526 17.5456 12.7526 17.5366C12.7526 17.5275 12.7526 17.5184 12.7526 17.5094C12.7526 17.5003 12.7526 17.4913 12.7526 17.4823C12.7526 17.4733 12.7526 17.4642 12.7526 17.4553C12.7526 17.4463 12.7526 17.4373 12.7526 17.4283C12.7526 17.4194 12.7526 17.4104 12.7526 17.4015C12.7526 17.3925 12.7526 17.3836 12.7526 17.3747C12.7526 17.3658 12.7526 17.3569 12.7526 17.348C12.7526 17.3391 12.7526 17.3303 12.7526 17.3214C12.7526 17.3126 12.7526 17.3038 12.7526 17.2949C12.7526 17.2861 12.7526 17.2773 12.7526 17.2685C12.7526 17.2597 12.7526 17.251 12.7526 17.2422C12.7526 17.2334 12.7526 17.2247 12.7526 17.216C12.7526 17.2072 12.7526 17.1985 12.7526 17.1898C12.7526 17.1811 12.7526 17.1724 12.7526 17.1638C12.7526 17.1551 12.7526 17.1464 12.7526 17.1378C12.7526 17.1292 12.7526 17.1205 12.7526 17.1119C12.7526 17.1033 12.7526 17.0947 12.7526 17.0862C12.7526 17.0776 12.7526 17.069 12.7526 17.0605C12.7526 17.0519 12.7526 17.0434 12.7526 17.0349C12.7526 17.0264 12.7526 17.0179 12.7526 17.0094C12.7526 17.0009 12.7526 16.9925 12.7526 16.984C12.7526 16.9756 12.7526 16.9672 12.7526 16.9587C12.7526 16.9503 12.7526 16.9419 12.7526 16.9335C12.7526 16.9252 12.7526 16.9168 12.7526 16.9085C12.7526 16.9001 12.7526 16.8918 12.7526 16.8835C12.7526 16.8752 12.7526 16.8669 12.7526 16.8586C12.7526 16.8503 12.7526 16.842 12.7526 16.8338C12.7526 16.8256 12.7526 16.8173 12.7526 16.8091C12.7526 16.8009 12.7526 16.7927 12.7526 16.7845C12.7526 16.7764 12.7526 16.7682 12.7526 16.7601C12.7526 16.7519 12.7526 16.7438 12.7526 16.7357C12.7526 16.7276 12.7526 16.7195 12.7526 16.7114C12.7526 16.7034 12.7526 16.6953 12.7526 16.6873C12.7526 16.6793 12.7526 16.6712 12.7526 16.6632C12.7526 16.6552 12.7526 16.6473 12.7526 16.6393C12.7526 16.6313 12.7526 16.6234 12.7526 16.6155C12.7526 16.6076 12.7526 16.5997 12.7526 16.5918C12.7526 16.5839 12.7526 16.576 12.7526 16.5682C12.7526 16.5603 12.7526 16.5525 12.7526 16.5447C12.7526 16.5369 12.7526 16.5291 12.7526 16.5213C12.7526 16.5135 12.7526 16.5058 12.7526 16.498C12.7526 16.4903 12.7526 16.4826 12.7526 16.4749C12.7526 16.4672 12.7526 16.4595 12.7526 16.4518C12.7526 16.4442 12.7526 16.4366 12.7526 16.4289C12.7526 16.4213 12.7526 16.4137 12.7526 16.4061C12.7526 16.3986 12.7526 16.391 12.7526 16.3835C12.7526 16.3759 12.7526 16.3684 12.7526 16.3609C12.7526 16.3534 12.7526 16.3459 12.7526 16.3384C12.7526 16.331 12.7526 16.3235 12.7526 16.3161C12.7526 16.3087 12.7526 16.3013 12.7526 16.2939C12.7526 16.2865 12.7526 16.2792 12.7526 16.2718C12.7526 16.2645 12.7526 16.2572 12.7526 16.2499C12.7526 16.2426 12.7526 16.2353 12.7526 16.2281C12.7526 16.2208 12.7526 16.2136 12.7526 16.2063C12.7526 16.1991 12.7526 16.1919 12.7526 16.1848C12.7526 16.1776 12.7526 16.1704 12.7526 16.1633C12.7526 16.1562 12.7526 16.1491 12.7526 16.142C12.7526 16.1349 12.7526 16.1278 12.7526 16.1208C12.7526 16.1137 12.7526 16.1067 12.7526 16.0997C12.7526 16.0927 12.7526 16.0857 12.7526 16.0788C12.7526 16.0718 12.7526 16.0649 12.7526 16.058C12.7526 16.051 12.7526 16.0441 12.7526 16.0373C12.7526 16.0304 12.7526 16.0236 12.7526 16.0167C12.7526 16.0099 12.7526 16.0031 12.7526 15.9963C12.7526 15.9895 12.7526 15.9828 12.7526 15.976C12.7526 15.9693 12.7526 15.9626 12.7526 15.9559C12.7526 15.9492 12.7526 15.9425 12.7526 15.9359C12.7526 15.9292 12.7526 15.9226 12.7526 15.916C12.7526 15.9094 12.7526 15.9028 12.7526 15.8963C12.7526 15.8897 12.7526 15.8832 12.7526 15.8767C12.7526 15.8701 12.7526 15.8637 12.7526 15.8572C12.7526 15.8507 12.7526 15.8443 12.7526 15.8379C12.7526 15.8315 12.7526 15.8251 12.7526 15.8187C12.7526 15.8123 12.7526 15.806 12.7526 15.7996C12.7526 15.7933 12.7526 15.787 12.7526 15.7807C12.7526 15.7745 12.7526 15.7682 12.7526 15.762C12.7526 15.7558 12.7526 15.7496 12.7526 15.7434C12.7526 15.7372 12.7526 15.731 12.7526 15.7249C12.7526 15.7188 12.7526 15.7127 12.7526 15.7066C12.7526 15.7005 12.7526 15.6944 12.7526 15.6884C12.7526 15.6824 12.7526 15.6764 12.7526 15.6704C12.7526 15.6644 12.7526 15.6584 12.7526 15.6525C12.7526 15.6465 12.7526 15.6406 12.7526 15.6348C12.7526 15.6289 12.7526 15.623 12.7526 15.6172C12.7526 15.6113 12.7526 15.6055 12.7526 15.5997C12.7526 15.5939 12.7526 15.5882 12.7526 15.5824C12.7526 15.5767 12.7526 15.571 12.7526 15.5653C12.7526 15.5596 12.7526 15.554 12.7526 15.5483C12.7526 15.5427 12.7526 15.5371 12.7526 15.5315C12.7526 15.5259 12.7526 15.5204 12.7526 15.5148C12.7526 15.5093 12.7526 15.5038 12.7526 15.4983C12.7526 15.4928 12.7526 15.4874 12.7526 15.482C12.7526 15.4765 12.7526 15.4711 12.7526 15.4657C12.7526 15.4604 12.7526 15.455 12.7526 15.4497C12.7526 15.4444 12.7526 15.4391 12.7526 15.4338C12.7526 15.4285 12.7526 15.4233 12.7526 15.4181C12.7526 15.4129 12.7526 15.4077 12.7526 15.4025C12.7526 15.3973 12.7526 15.3922 12.7526 15.3871C12.7526 15.382 12.7526 15.3769 12.7526 15.3718C12.7526 15.3668 12.7526 15.3618 12.7526 15.3568C12.7526 15.3518 12.7526 15.3468 12.7526 15.3418C12.7526 15.3369 12.7526 15.332 12.7526 15.3271C12.7526 15.3222 12.7526 15.3173 12.7526 15.3125C12.7526 15.3077 12.7526 15.3028 12.7526 15.2981C12.7526 15.2933 12.7526 15.2885 12.7526 15.2838C12.7526 15.2791 12.7526 15.2744 12.7526 15.2697C12.7526 15.265 12.7526 15.2604 12.7526 15.2558C12.7526 15.2512 12.7526 15.2466 12.7526 15.242C12.7526 15.2375 12.7526 15.2329 12.7526 15.2284C12.7526 15.2239 12.7526 15.2195 12.7526 15.215C12.7526 15.2106 12.7526 15.2062 12.7526 15.2018C12.7526 15.1974 12.7526 15.193 12.7526 15.1887C12.7526 15.1844 12.7526 15.1801 12.7526 15.1758C12.7526 15.1715 12.7526 15.1673 12.7526 15.1631C12.7526 15.1589 12.7526 15.1547 12.7526 15.1505C12.7526 15.1464 12.7526 15.1422 12.7526 15.1382C12.7526 15.1341 12.7526 15.13 12.7526 15.126C12.7526 15.1219 12.7526 15.1179 12.7526 15.1139C12.7526 15.11 12.7526 15.106 12.7526 15.1021C12.7526 15.0982 12.7526 15.0943 12.7526 15.0904C12.7526 15.0866 12.7526 15.0827 12.7526 15.0789C12.7526 15.0751 12.7526 15.0714 12.7526 15.0676C12.7526 15.0639 12.7526 15.0602 12.7526 15.0565C12.7526 15.0528 12.7526 15.0492 12.7526 15.0456C12.7526 15.042 12.7526 15.0384 12.7526 15.0348C12.7526 15.0313 12.7526 15.0277 12.7526 15.0242C12.7526 15.0207 12.7526 15.0173 12.7526 15.0138C12.7526 15.0104 12.7526 15.007 12.7526 15.0036C12.7526 15.0003 12.7526 14.9969 12.7526 14.9936C12.7526 14.9903 12.7526 14.987 12.7526 14.9838C12.7526 14.9805 12.7526 14.9773 12.7526 14.9742C12.7526 14.971 12.7526 14.9678 12.7526 14.9647C12.7526 14.9616 12.7526 14.9585 12.7526 14.9554C12.7526 14.9524 12.7526 14.9494 12.7526 14.9464C12.7526 14.9434 12.7526 14.9404 12.7526 14.9375C12.7526 14.9345 12.7526 14.9316 12.7526 14.9288C12.7526 14.9259 12.7526 14.9231 12.7526 14.9203C12.7526 14.9175 12.7526 14.9147 12.7526 14.912C12.7526 14.9092 12.7526 14.9065 12.7526 14.9039C12.7526 14.9012 12.7526 14.8986 12.7526 14.896C12.7526 14.8933 12.7526 14.8908 12.7526 14.8882C12.7526 14.8857 12.7526 14.8832 12.7526 14.8807C12.7526 14.8782 12.7526 14.8758 12.7526 14.8734C12.7526 14.871 12.7526 14.8686 12.7526 14.8663C12.7526 14.8639 12.7526 14.8616 12.7526 14.8593C12.7526 14.8571 12.7526 14.8548 12.7526 14.8526C12.7526 14.8504 12.7526 14.8482 12.7526 14.8461C12.7526 14.8439 12.7526 14.8418 12.7526 14.8398C12.7526 14.8377 12.7526 14.8356 12.7526 14.8336C12.7526 14.8316 12.7526 14.8297 12.7526 14.8277C12.7526 14.8258 12.7526 14.8239 12.7526 14.822C12.7526 14.8201 12.7526 14.8183 12.7526 14.8165C12.7526 14.8147 12.7526 14.8129 12.7526 14.8112C12.7526 14.8095 12.7526 14.8078 12.7526 14.8061C12.7526 14.8044 12.7526 14.8028 12.7526 14.8012C12.7526 14.7996 12.7526 14.7981 12.7526 14.7965C12.7526 14.795 12.7526 14.7935 12.7526 14.7921C12.7526 14.7906 12.7526 14.7892 12.7526 14.7878C12.7526 14.7864 12.7526 14.7851 12.7526 14.7838C12.7526 14.7824 12.7526 14.7812 12.7526 14.7799C12.7526 14.7787 12.7526 14.7775 12.7526 14.7763C12.7526 14.7751 12.7526 14.774 12.7526 14.7729C12.7526 14.7718 12.7526 14.7707 12.7526 14.7697C12.7526 14.7687 12.7526 14.7677 12.7526 14.7667C12.7526 14.7657 12.7526 14.7648 12.7526 14.7639C12.7526 14.763 12.7526 14.7622 12.7526 14.7614C12.7526 14.7606 12.7526 14.7598 12.7526 14.7591C12.7526 14.7583 12.7526 14.7576 12.7526 14.7569C12.7526 14.7563 12.7526 14.7556 12.7526 14.755C12.7526 14.7544 12.7526 14.7539 12.7526 14.7534C12.7526 14.7528 12.7526 14.7524 12.7526 14.7519C12.7526 14.7515 12.7526 14.7511 12.7526 14.7507C12.7526 14.7503 12.7526 14.75 12.7526 14.7497C12.7526 14.7494 12.7526 14.7491 12.7526 14.7489C12.7526 14.7487 12.7526 14.7485 12.7526 14.7483C12.7526 14.7482 12.7526 14.7481 12.7526 14.748C12.7526 14.7479 12.7526 14.7479 11.2526 14.7479C9.7526 14.7479 9.7526 14.7479 9.7526 14.748C9.7526 14.7481 9.7526 14.7482 9.7526 14.7483C9.7526 14.7485 9.7526 14.7487 9.7526 14.7489C9.7526 14.7491 9.7526 14.7494 9.7526 14.7497C9.7526 14.75 9.7526 14.7503 9.7526 14.7507C9.7526 14.7511 9.7526 14.7515 9.7526 14.7519C9.7526 14.7524 9.7526 14.7528 9.7526 14.7534C9.7526 14.7539 9.7526 14.7544 9.7526 14.755C9.7526 14.7556 9.7526 14.7563 9.7526 14.7569C9.7526 14.7576 9.7526 14.7583 9.7526 14.7591C9.7526 14.7598 9.7526 14.7606 9.7526 14.7614C9.7526 14.7622 9.7526 14.763 9.7526 14.7639C9.7526 14.7648 9.7526 14.7657 9.7526 14.7667C9.7526 14.7677 9.7526 14.7687 9.7526 14.7697C9.7526 14.7707 9.7526 14.7718 9.7526 14.7729C9.7526 14.774 9.7526 14.7751 9.7526 14.7763C9.7526 14.7775 9.7526 14.7787 9.7526 14.7799C9.7526 14.7812 9.7526 14.7824 9.7526 14.7838C9.7526 14.7851 9.7526 14.7864 9.7526 14.7878C9.7526 14.7892 9.7526 14.7906 9.7526 14.7921C9.7526 14.7935 9.7526 14.795 9.7526 14.7965C9.7526 14.7981 9.7526 14.7996 9.7526 14.8012C9.7526 14.8028 9.7526 14.8044 9.7526 14.8061C9.7526 14.8078 9.7526 14.8095 9.7526 14.8112C9.7526 14.8129 9.7526 14.8147 9.7526 14.8165C9.7526 14.8183 9.7526 14.8201 9.7526 14.822C9.7526 14.8239 9.7526 14.8258 9.7526 14.8277C9.7526 14.8297 9.7526 14.8316 9.7526 14.8336C9.7526 14.8356 9.7526 14.8377 9.7526 14.8398C9.7526 14.8418 9.7526 14.8439 9.7526 14.8461C9.7526 14.8482 9.7526 14.8504 9.7526 14.8526C9.7526 14.8548 9.7526 14.8571 9.7526 14.8593C9.7526 14.8616 9.7526 14.8639 9.7526 14.8663C9.7526 14.8686 9.7526 14.871 9.7526 14.8734C9.7526 14.8758 9.7526 14.8782 9.7526 14.8807C9.7526 14.8832 9.7526 14.8857 9.7526 14.8882C9.7526 14.8908 9.7526 14.8933 9.7526 14.896C9.7526 14.8986 9.7526 14.9012 9.7526 14.9039C9.7526 14.9065 9.7526 14.9092 9.7526 14.912C9.7526 14.9147 9.7526 14.9175 9.7526 14.9203C9.7526 14.9231 9.7526 14.9259 9.7526 14.9288C9.7526 14.9316 9.7526 14.9345 9.7526 14.9375C9.7526 14.9404 9.7526 14.9434 9.7526 14.9464C9.7526 14.9494 9.7526 14.9524 9.7526 14.9554C9.7526 14.9585 9.7526 14.9616 9.7526 14.9647C9.7526 14.9678 9.7526 14.971 9.7526 14.9742C9.7526 14.9773 9.7526 14.9805 9.7526 14.9838C9.7526 14.987 9.7526 14.9903 9.7526 14.9936C9.7526 14.9969 9.7526 15.0003 9.7526 15.0036C9.7526 15.007 9.7526 15.0104 9.7526 15.0138C9.7526 15.0173 9.7526 15.0207 9.7526 15.0242C9.7526 15.0277 9.7526 15.0313 9.7526 15.0348C9.7526 15.0384 9.7526 15.042 9.7526 15.0456C9.7526 15.0492 9.7526 15.0528 9.7526 15.0565C9.7526 15.0602 9.7526 15.0639 9.7526 15.0676C9.7526 15.0714 9.7526 15.0751 9.7526 15.0789C9.7526 15.0827 9.7526 15.0866 9.7526 15.0904C9.7526 15.0943 9.7526 15.0982 9.7526 15.1021C9.7526 15.106 9.7526 15.11 9.7526 15.1139C9.7526 15.1179 9.7526 15.1219 9.7526 15.126C9.7526 15.13 9.7526 15.1341 9.7526 15.1382C9.7526 15.1422 9.7526 15.1464 9.7526 15.1505C9.7526 15.1547 9.7526 15.1589 9.7526 15.1631C9.7526 15.1673 9.7526 15.1715 9.7526 15.1758C9.7526 15.1801 9.7526 15.1844 9.7526 15.1887C9.7526 15.193 9.7526 15.1974 9.7526 15.2018C9.7526 15.2062 9.7526 15.2106 9.7526 15.215C9.7526 15.2195 9.7526 15.2239 9.7526 15.2284C9.7526 15.2329 9.7526 15.2375 9.7526 15.242C9.7526 15.2466 9.7526 15.2512 9.7526 15.2558C9.7526 15.2604 9.7526 15.265 9.7526 15.2697C9.7526 15.2744 9.7526 15.2791 9.7526 15.2838C9.7526 15.2885 9.7526 15.2933 9.7526 15.2981C9.7526 15.3028 9.7526 15.3077 9.7526 15.3125C9.7526 15.3173 9.7526 15.3222 9.7526 15.3271C9.7526 15.332 9.7526 15.3369 9.7526 15.3418C9.7526 15.3468 9.7526 15.3518 9.7526 15.3568C9.7526 15.3618 9.7526 15.3668 9.7526 15.3718C9.7526 15.3769 9.7526 15.382 9.7526 15.3871C9.7526 15.3922 9.7526 15.3973 9.7526 15.4025C9.7526 15.4077 9.7526 15.4129 9.7526 15.4181C9.7526 15.4233 9.7526 15.4285 9.7526 15.4338C9.7526 15.4391 9.7526 15.4444 9.7526 15.4497C9.7526 15.455 9.7526 15.4604 9.7526 15.4657C9.7526 15.4711 9.7526 15.4765 9.7526 15.482C9.7526 15.4874 9.7526 15.4928 9.7526 15.4983C9.7526 15.5038 9.7526 15.5093 9.7526 15.5148C9.7526 15.5204 9.7526 15.5259 9.7526 15.5315C9.7526 15.5371 9.7526 15.5427 9.7526 15.5483C9.7526 15.554 9.7526 15.5596 9.7526 15.5653C9.7526 15.571 9.7526 15.5767 9.7526 15.5824C9.7526 15.5882 9.7526 15.5939 9.7526 15.5997C9.7526 15.6055 9.7526 15.6113 9.7526 15.6172C9.7526 15.623 9.7526 15.6289 9.7526 15.6348C9.7526 15.6406 9.7526 15.6465 9.7526 15.6525C9.7526 15.6584 9.7526 15.6644 9.7526 15.6704C9.7526 15.6764 9.7526 15.6824 9.7526 15.6884C9.7526 15.6944 9.7526 15.7005 9.7526 15.7066C9.7526 15.7127 9.7526 15.7188 9.7526 15.7249C9.7526 15.731 9.7526 15.7372 9.7526 15.7434C9.7526 15.7496 9.7526 15.7558 9.7526 15.762C9.7526 15.7682 9.7526 15.7745 9.7526 15.7807C9.7526 15.787 9.7526 15.7933 9.7526 15.7996C9.7526 15.806 9.7526 15.8123 9.7526 15.8187C9.7526 15.8251 9.7526 15.8315 9.7526 15.8379C9.7526 15.8443 9.7526 15.8507 9.7526 15.8572C9.7526 15.8637 9.7526 15.8701 9.7526 15.8767C9.7526 15.8832 9.7526 15.8897 9.7526 15.8963C9.7526 15.9028 9.7526 15.9094 9.7526 15.916C9.7526 15.9226 9.7526 15.9292 9.7526 15.9359C9.7526 15.9425 9.7526 15.9492 9.7526 15.9559C9.7526 15.9626 9.7526 15.9693 9.7526 15.976C9.7526 15.9828 9.7526 15.9895 9.7526 15.9963C9.7526 16.0031 9.7526 16.0099 9.7526 16.0167C9.7526 16.0236 9.7526 16.0304 9.7526 16.0373C9.7526 16.0441 9.7526 16.051 9.7526 16.058C9.7526 16.0649 9.7526 16.0718 9.7526 16.0788C9.7526 16.0857 9.7526 16.0927 9.7526 16.0997C9.7526 16.1067 9.7526 16.1137 9.7526 16.1208C9.7526 16.1278 9.7526 16.1349 9.7526 16.142C9.7526 16.1491 9.7526 16.1562 9.7526 16.1633C9.7526 16.1704 9.7526 16.1776 9.7526 16.1848C9.7526 16.1919 9.7526 16.1991 9.7526 16.2063C9.7526 16.2136 9.7526 16.2208 9.7526 16.2281C9.7526 16.2353 9.7526 16.2426 9.7526 16.2499C9.7526 16.2572 9.7526 16.2645 9.7526 16.2718C9.7526 16.2792 9.7526 16.2865 9.7526 16.2939C9.7526 16.3013 9.7526 16.3087 9.7526 16.3161C9.7526 16.3235 9.7526 16.331 9.7526 16.3384C9.7526 16.3459 9.7526 16.3534 9.7526 16.3609C9.7526 16.3684 9.7526 16.3759 9.7526 16.3835C9.7526 16.391 9.7526 16.3986 9.7526 16.4061C9.7526 16.4137 9.7526 16.4213 9.7526 16.4289C9.7526 16.4366 9.7526 16.4442 9.7526 16.4518C9.7526 16.4595 9.7526 16.4672 9.7526 16.4749C9.7526 16.4826 9.7526 16.4903 9.7526 16.498C9.7526 16.5058 9.7526 16.5135 9.7526 16.5213C9.7526 16.5291 9.7526 16.5369 9.7526 16.5447C9.7526 16.5525 9.7526 16.5603 9.7526 16.5682C9.7526 16.576 9.7526 16.5839 9.7526 16.5918C9.7526 16.5997 9.7526 16.6076 9.7526 16.6155C9.7526 16.6234 9.7526 16.6313 9.7526 16.6393C9.7526 16.6473 9.7526 16.6552 9.7526 16.6632C9.7526 16.6712 9.7526 16.6793 9.7526 16.6873C9.7526 16.6953 9.7526 16.7034 9.7526 16.7114C9.7526 16.7195 9.7526 16.7276 9.7526 16.7357C9.7526 16.7438 9.7526 16.7519 9.7526 16.7601C9.7526 16.7682 9.7526 16.7764 9.7526 16.7845C9.7526 16.7927 9.7526 16.8009 9.7526 16.8091C9.7526 16.8173 9.7526 16.8256 9.7526 16.8338C9.7526 16.842 9.7526 16.8503 9.7526 16.8586C9.7526 16.8669 9.7526 16.8752 9.7526 16.8835C9.7526 16.8918 9.7526 16.9001 9.7526 16.9085C9.7526 16.9168 9.7526 16.9252 9.7526 16.9335C9.7526 16.9419 9.7526 16.9503 9.7526 16.9587C9.7526 16.9672 9.7526 16.9756 9.7526 16.984C9.7526 16.9925 9.7526 17.0009 9.7526 17.0094C9.7526 17.0179 9.7526 17.0264 9.7526 17.0349C9.7526 17.0434 9.7526 17.0519 9.7526 17.0605C9.7526 17.069 9.7526 17.0776 9.7526 17.0862C9.7526 17.0947 9.7526 17.1033 9.7526 17.1119C9.7526 17.1205 9.7526 17.1292 9.7526 17.1378C9.7526 17.1464 9.7526 17.1551 9.7526 17.1638C9.7526 17.1724 9.7526 17.1811 9.7526 17.1898C9.7526 17.1985 9.7526 17.2072 9.7526 17.216C9.7526 17.2247 9.7526 17.2334 9.7526 17.2422C9.7526 17.251 9.7526 17.2597 9.7526 17.2685C9.7526 17.2773 9.7526 17.2861 9.7526 17.2949C9.7526 17.3038 9.7526 17.3126 9.7526 17.3214C9.7526 17.3303 9.7526 17.3391 9.7526 17.348C9.7526 17.3569 9.7526 17.3658 9.7526 17.3747C9.7526 17.3836 9.7526 17.3925 9.7526 17.4015C9.7526 17.4104 9.7526 17.4194 9.7526 17.4283C9.7526 17.4373 9.7526 17.4463 9.7526 17.4553C9.7526 17.4642 9.7526 17.4733 9.7526 17.4823C9.7526 17.4913 9.7526 17.5003 9.7526 17.5094C9.7526 17.5184 9.7526 17.5275 9.7526 17.5366C9.7526 17.5456 9.7526 17.5547 9.7526 17.5638C9.7526 17.5729 9.7526 17.582 9.7526 17.5912C9.7526 17.6003 9.7526 17.6094 9.7526 17.6186C9.7526 17.6277 9.7526 17.6369 9.7526 17.6461C9.7526 17.6553 9.7526 17.6645 9.7526 17.6737C9.7526 17.6829 9.7526 17.6921 9.7526 17.7013C9.7526 17.7106 9.7526 17.7198 9.7526 17.7291C9.7526 17.7383 9.7526 17.7476 9.7526 17.7569C9.7526 17.7661 9.7526 17.7754 9.7526 17.7847C9.7526 17.7941 9.7526 17.8034 9.7526 17.8127C9.7526 17.822 9.7526 17.8314 9.7526 17.8407C9.7526 17.8501 9.7526 17.8595 9.7526 17.8688C9.7526 17.8782 9.7526 17.8876 9.7526 17.897C9.7526 17.9064 9.7526 17.9158 9.7526 17.9253C9.7526 17.9347 9.7526 17.9441 9.7526 17.9536C9.7526 17.963 9.7526 17.9725 9.7526 17.9819C9.7526 17.9914 9.7526 18.0009 9.7526 18.0104C9.7526 18.0199 9.7526 18.0294 9.7526 18.0389C9.7526 18.0484 9.7526 18.058 9.7526 18.0675C9.7526 18.077 9.7526 18.0866 9.7526 18.0961C9.7526 18.1057 9.7526 18.1153 9.7526 18.1249C9.7526 18.1344 9.7526 18.144 9.7526 18.1536C9.7526 18.1632 9.7526 18.1729 9.7526 18.1825C9.7526 18.1921 9.7526 18.2017 9.7526 18.2114C9.7526 18.221 9.7526 18.2307 9.7526 18.2403C9.7526 18.25 9.7526 18.2597 9.7526 18.2694C9.7526 18.2791 9.7526 18.2887 9.7526 18.2985C9.7526 18.3082 9.7526 18.3179 9.7526 18.3276C9.7526 18.3373 9.7526 18.3471 9.7526 18.3568C9.7526 18.3665 9.7526 18.3763 9.7526 18.3861C9.7526 18.3958 9.7526 18.4056 9.7526 18.4154C9.7526 18.4252 9.7526 18.4349 9.7526 18.4447C9.7526 18.4545 9.7526 18.4644 9.7526 18.4742C9.7526 18.484 9.7526 18.4938 9.7526 18.5037C9.7526 18.5135 9.7526 18.5233 9.7526 18.5332C9.7526 18.543 9.7526 18.5529 9.7526 18.5628C9.7526 18.5726 9.7526 18.5825 9.7526 18.5924C9.7526 18.6023 9.7526 18.6122 9.7526 18.6221C9.7526 18.632 9.7526 18.6419 9.7526 18.6518C9.7526 18.6618 9.7526 18.6717 9.7526 18.6816C9.7526 18.6916 9.7526 18.7015 9.7526 18.7115C9.7526 18.7214 9.7526 18.7314 9.7526 18.7413C9.7526 18.7513 9.7526 18.7613 9.7526 18.7713C9.7526 18.7813 9.7526 18.7912 9.7526 18.8012C9.7526 18.8112 9.7526 18.8213 9.7526 18.8313C9.7526 18.8413 9.7526 18.8513 9.7526 18.8613C9.7526 18.8714 9.7526 18.8814 9.7526 18.8914C9.7526 18.9015 9.7526 18.9115 9.7526 18.9216C9.7526 18.9316 9.7526 18.9417 9.7526 18.9518C9.7526 18.9619 9.7526 18.9719 9.7526 18.982C9.7526 18.9921 9.7526 19.0022 9.7526 19.0123C9.7526 19.0224 9.7526 19.0325 9.7526 19.0426C9.7526 19.0527 9.7526 19.0628 9.7526 19.073C9.7526 19.0831 9.7526 19.0932 9.7526 19.1033C9.7526 19.1135 9.7526 19.1236 9.7526 19.1338C9.7526 19.1439 9.7526 19.1541 9.7526 19.1642C9.7526 19.1744 9.7526 19.1846 9.7526 19.1947C9.7526 19.2049 9.7526 19.2151 9.7526 19.2253C9.7526 19.2354 9.7526 19.2456 9.7526 19.2558C9.7526 19.266 9.7526 19.2762 9.7526 19.2864C9.7526 19.2966 9.7526 19.3068 9.7526 19.317C9.7526 19.3273 9.7526 19.3375 9.7526 19.3477C9.7526 19.3579 9.7526 19.3682 9.7526 19.3784C9.7526 19.3886 9.7526 19.3989 9.7526 19.4091C9.7526 19.4194 9.7526 19.4296 9.7526 19.4399C9.7526 19.4501 9.7526 19.4604 9.7526 19.4706C9.7526 19.4809 9.7526 19.4912 9.7526 19.5014C9.7526 19.5117 9.7526 19.522 9.7526 19.5323C9.7526 19.5425 9.7526 19.5528 9.7526 19.5631C9.7526 19.5734 9.7526 19.5837 9.7526 19.594C9.7526 19.6043 9.7526 19.6146 9.7526 19.6249C9.7526 19.6352 9.7526 19.6455 9.7526 19.6558C9.7526 19.6661 9.7526 19.6765 9.7526 19.6868C9.7526 19.6971 9.7526 19.7074 9.7526 19.7177C9.7526 19.7281 9.7526 19.7384 9.7526 19.7487C9.7526 19.7591 9.7526 19.7694 9.7526 19.7797C9.7526 19.7901 9.7526 19.8004 9.7526 19.8108C9.7526 19.8211 9.7526 19.8315 9.7526 19.8418C9.7526 19.8522 9.7526 19.8625 9.7526 19.8729C9.7526 19.8832 9.7526 19.8936 9.7526 19.904C9.7526 19.9143 9.7526 19.9247 9.7526 19.935C9.7526 19.9454 9.7526 19.9558 9.7526 19.9662C9.7526 19.9765 9.7526 19.9869 9.7526 19.9973C9.7526 20.0077 9.7526 20.018 9.7526 20.0284C9.7526 20.0388 9.7526 20.0492 9.7526 20.0596C9.7526 20.0699 9.7526 20.0803 9.7526 20.0907C9.7526 20.1011 9.7526 20.1115 9.7526 20.1219C9.7526 20.1323 9.7526 20.1427 9.7526 20.1531C9.7526 20.1635 9.7526 20.1739 9.7526 20.1843C9.7526 20.1946 9.7526 20.205 9.7526 20.2154C9.7526 20.2258 9.7526 20.2362 9.7526 20.2466C9.7526 20.2571 9.7526 20.2675 9.7526 20.2779C9.7526 20.2883 9.7526 20.2987 9.7526 20.3091C9.7526 20.3195 9.7526 20.3299 9.7526 20.3403C9.7526 20.3507 9.7526 20.3611 9.7526 20.3715C9.7526 20.3819 9.7526 20.3923 9.7526 20.4027C9.7526 20.4132 9.7526 20.4236 9.7526 20.434C9.7526 20.4444 9.7526 20.4548 9.7526 20.4652C9.7526 20.4756 9.7526 20.486 9.7526 20.4964C9.7526 20.5068 9.7526 20.5173 9.7526 20.5277C9.7526 20.5381 9.7526 20.5485 9.7526 20.5589C9.7526 20.5693 9.7526 20.5797 9.7526 20.5901C9.7526 20.6005 9.7526 20.6109 9.7526 20.6213C9.7526 20.6318 9.7526 20.6422 9.7526 20.6526C9.7526 20.663 9.7526 20.6734 9.7526 20.6838C9.7526 20.6942 9.7526 20.7046 9.7526 20.715C9.7526 20.7254 9.7526 20.7358 9.7526 20.7462C9.7526 20.7566 9.7526 20.767 9.7526 20.7774C9.7526 20.7878 9.7526 20.7982 9.7526 20.8086C9.7526 20.819 9.7526 20.8294 9.7526 20.8398C9.7526 20.8502 9.7526 20.8606 9.7526 20.871C9.7526 20.8813 9.7526 20.8917 9.7526 20.9021C9.7526 20.9125 9.7526 20.9229 9.7526 20.9333C9.7526 20.9437 9.7526 20.954 9.7526 20.9644C9.7526 20.9748 9.7526 20.9852 9.7526 20.9956C9.7526 21.0059 9.7526 21.0163 9.7526 21.0267C9.7526 21.037 9.7526 21.0474 9.7526 21.0578C9.7526 21.0681 9.7526 21.0785 9.7526 21.0889C9.7526 21.0992 9.7526 21.1096 9.7526 21.1199C9.7526 21.1303 9.7526 21.1406 9.7526 21.151C9.7526 21.1613 9.7526 21.1717 9.7526 21.182C9.7526 21.1924 9.7526 21.2027 9.7526 21.213C9.7526 21.2234 9.7526 21.2337 9.7526 21.244C9.7526 21.2544 9.7526 21.2647 9.7526 21.275C9.7526 21.2853 9.7526 21.2957 9.7526 21.306C9.7526 21.3163 9.7526 21.3266 9.7526 21.3369C9.7526 21.3472 9.7526 21.3575 9.7526 21.3678C9.7526 21.3781 9.7526 21.3884 9.7526 21.3987C9.7526 21.409 9.7526 21.4193 9.7526 21.4296C9.7526 21.4399 9.7526 21.4502 9.7526 21.4604C9.7526 21.4707 9.7526 21.481 9.7526 21.4913C9.7526 21.5015 9.7526 21.5118 9.7526 21.5221C9.7526 21.5323 9.7526 21.5426 9.7526 21.5528C9.7526 21.5631 9.7526 21.5733 9.7526 21.5836C9.7526 21.5938 9.7526 21.604 9.7526 21.6143C9.7526 21.6245 9.7526 21.6347 9.7526 21.6449C9.7526 21.6552 9.7526 21.6654 9.7526 21.6756C9.7526 21.6858 9.7526 21.696 9.7526 21.7062C9.7526 21.7164 9.7526 21.7266 9.7526 21.7368C9.7526 21.747 9.7526 21.7572 9.7526 21.7673C9.7526 21.7775 9.7526 21.7877 9.7526 21.7979C9.7526 21.808 9.7526 21.8182 9.7526 21.8283C9.7526 21.8385 9.7526 21.8486 9.7526 21.8588C9.7526 21.8689 9.7526 21.8791 9.7526 21.8892C9.7526 21.8993 9.7526 21.9095 9.7526 21.9196C9.7526 21.9297 9.7526 21.9398 9.7526 21.9499C9.7526 21.96 9.7526 21.9701 9.7526 21.9802C9.7526 21.9903 9.7526 22.0004 9.7526 22.0105C9.7526 22.0205 9.7526 22.0306 9.7526 22.0407C9.7526 22.0508 9.7526 22.0608 9.7526 22.0709C9.7526 22.0809 9.7526 22.091 9.7526 22.101C9.7526 22.111 9.7526 22.1211 9.7526 22.1311C9.7526 22.1411 9.7526 22.1511 9.7526 22.1611C9.7526 22.1711 9.7526 22.1811 9.7526 22.1911C9.7526 22.2011 9.7526 22.2111 9.7526 22.2211C9.7526 22.2311 9.7526 22.241 9.7526 22.251C9.7526 22.261 9.7526 22.2709 9.7526 22.2809C9.7526 22.2908 9.7526 22.3008 9.7526 22.3107C9.7526 22.3206 9.7526 22.3305 9.7526 22.3405C9.7526 22.3504 9.7526 22.3603 9.7526 22.3702C9.7526 22.3801 9.7526 22.39 9.7526 22.3998C9.7526 22.4097 9.7526 22.4196 9.7526 22.4295C9.7526 22.4393 9.7526 22.4492 9.7526 22.459C9.7526 22.4689 9.7526 22.4787 9.7526 22.4885C9.7526 22.4984 9.7526 22.5082 9.7526 22.518C9.7526 22.5278 9.7526 22.5376 9.7526 22.5474C9.7526 22.5572 9.7526 22.567 9.7526 22.5768C9.7526 22.5865 9.7526 22.5963 9.7526 22.606C9.7526 22.6158 9.7526 22.6255 9.7526 22.6353C9.7526 22.645 9.7526 22.6547 9.7526 22.6645C9.7526 22.6742 9.7526 22.6839 9.7526 22.6936C9.7526 22.7033 9.7526 22.713 9.7526 22.7226C9.7526 22.7323 9.7526 22.742 9.7526 22.7516C9.7526 22.7613 9.7526 22.7709 9.7526 22.7806C9.7526 22.7902 9.7526 22.7998 9.7526 22.8095C9.7526 22.8191 9.7526 22.8287 9.7526 22.8383C9.7526 22.8479 9.7526 22.8575 9.7526 22.867C9.7526 22.8766 9.7526 22.8862 9.7526 22.8957C9.7526 22.9053 9.7526 22.9148 9.7526 22.9243C9.7526 22.9339 9.7526 22.9434 9.7526 22.9529C9.7526 22.9624 9.7526 22.9719 9.7526 22.9814C9.7526 22.9909 9.7526 23.0004 9.7526 23.0098C9.7526 23.0193 9.7526 23.0287 9.7526 23.0382C9.7526 23.0476 9.7526 23.057 9.7526 23.0665C9.7526 23.0759 9.7526 23.0853 9.7526 23.0947C9.7526 23.1041 9.7526 23.1135 9.7526 23.1228C9.7526 23.1322 9.7526 23.1415 9.7526 23.1509C9.7526 23.1602 9.7526 23.1696 9.7526 23.1789C9.7526 23.1882 9.7526 23.1975 9.7526 23.2068C9.7526 23.2161 9.7526 23.2254 9.7526 23.2347C9.7526 23.244 9.7526 23.2532 9.7526 23.2625C9.7526 23.2717 9.7526 23.2809 9.7526 23.2902C9.7526 23.2994 9.7526 23.3086 9.7526 23.3178C9.7526 23.327 9.7526 23.3362 9.7526 23.3453C9.7526 23.3545 9.7526 23.3637 9.7526 23.3728C9.7526 23.382 9.7526 23.3911 9.7526 23.4002C9.7526 23.4093 9.7526 23.4184 9.7526 23.4275C9.7526 23.4366 9.7526 23.4457 9.7526 23.4547C9.7526 23.4638 9.7526 23.4729 9.7526 23.4819C9.7526 23.4909 9.7526 23.5 9.7526 23.509C9.7526 23.518 9.7526 23.527 9.7526 23.5359C9.7526 23.5449 9.7526 23.5539 9.7526 23.5629C9.7526 23.5718 9.7526 23.5807 9.7526 23.5897C9.7526 23.5986 9.7526 23.6075 9.7526 23.6164C9.7526 23.6253 9.7526 23.6342 9.7526 23.643C9.7526 23.6519 9.7526 23.6608 9.7526 23.6696C9.7526 23.6784 9.7526 23.6873 9.7526 23.6961C9.7526 23.7049 9.7526 23.7137 9.7526 23.7225C9.7526 23.7312 9.7526 23.74 9.7526 23.7487C9.7526 23.7575 9.7526 23.7662 9.7526 23.7749C9.7526 23.7837 9.7526 23.7924 9.7526 23.8011C9.7526 23.8097 9.7526 23.8184 9.7526 23.8271C9.7526 23.8357 9.7526 23.8444 9.7526 23.853C9.7526 23.8616 9.7526 23.8702 9.7526 23.8788C9.7526 23.8874 9.7526 23.896 9.7526 23.9046C9.7526 23.9131 9.7526 23.9217 9.7526 23.9302C9.7526 23.9387 9.7526 23.9472 9.7526 23.9557C9.7526 23.9642 9.7526 23.9727 9.7526 23.9812C9.7526 23.9897 9.7526 23.9981 9.7526 24.0065C9.7526 24.015 9.7526 24.0234 9.7526 24.0318C9.7526 24.0402 9.7526 24.0486 9.7526 24.0569C9.7526 24.0653 9.7526 24.0737 9.7526 24.082C9.7526 24.0903 9.7526 24.0986 9.7526 24.1069C9.7526 24.1152 9.7526 24.1235 9.7526 24.1318C9.7526 24.1401 9.7526 24.1483 9.7526 24.1565C9.7526 24.1648 9.7526 24.173 9.7526 24.1812C9.7526 24.1894 9.7526 24.1975 9.7526 24.2057C9.7526 24.2139 9.7526 24.222 9.7526 24.2301C9.7526 24.2383 9.7526 24.2464 9.7526 24.2545C9.7526 24.2626 9.7526 24.2706 9.7526 24.2787C9.7526 24.2867 9.7526 24.2948 9.7526 24.3028C9.7526 24.3108 9.7526 24.3188 9.7526 24.3268C9.7526 24.3348 9.7526 24.3427 9.7526 24.3507C9.7526 24.3586 9.7526 24.3666 9.7526 24.3745C9.7526 24.3824 9.7526 24.3903 9.7526 24.3981C9.7526 24.406 9.7526 24.4139 9.7526 24.4217C9.7526 24.4295 9.7526 24.4374 9.7526 24.4451C9.7526 24.4529 9.7526 24.4607 9.7526 24.4685C9.7526 24.4762 9.7526 24.484 9.7526 24.4917C9.7526 24.4994 9.7526 24.5071 9.7526 24.5148C9.7526 24.5225 9.7526 24.5301 9.7526 24.5378C9.7526 24.5454 9.7526 24.5531 9.7526 24.5607C9.7526 24.5683 9.7526 24.5759 9.7526 24.5834C9.7526 24.591 9.7526 24.5985 9.7526 24.6061C9.7526 24.6136 9.7526 24.6211 9.7526 24.6286C9.7526 24.6361 9.7526 24.6435 9.7526 24.651C9.7526 24.6584 9.7526 24.6658 9.7526 24.6732C9.7526 24.6806 9.7526 24.688 9.7526 24.6954C9.7526 24.7028 9.7526 24.7101 9.7526 24.7174C9.7526 24.7247 9.7526 24.732 9.7526 24.7393C9.7526 24.7466 9.7526 24.7539 9.7526 24.7611C9.7526 24.7684 9.7526 24.7756 9.7526 24.7828C9.7526 24.79 9.7526 24.7971 9.7526 24.8043C9.7526 24.8115 9.7526 24.8186 9.7526 24.8257C9.7526 24.8328 9.7526 24.8399 9.7526 24.847C9.7526 24.8541 9.7526 24.8611 9.7526 24.8681C9.7526 24.8752 9.7526 24.8822 9.7526 24.8892C9.7526 24.8961 9.7526 24.9031 9.7526 24.9101C9.7526 24.917 9.7526 24.9239 9.7526 24.9308C9.7526 24.9377 9.7526 24.9446 9.7526 24.9514C9.7526 24.9583 9.7526 24.9651 9.7526 24.9719C9.7526 24.9788 9.7526 24.9855 9.7526 24.9923C9.7526 24.9991 9.7526 25.0058 9.7526 25.0125C9.7526 25.0193 9.7526 25.026 9.7526 25.0326C9.7526 25.0393 9.7526 25.046 9.7526 25.0526C9.7526 25.0592 9.7526 25.0658 9.7526 25.0724C9.7526 25.079 9.7526 25.0856 9.7526 25.0921C9.7526 25.0986 9.7526 25.1051 9.7526 25.1116C9.7526 25.1181 9.7526 25.1246 9.7526 25.1311C9.7526 25.1375 9.7526 25.1439 9.7526 25.1503C9.7526 25.1567 9.7526 25.1631 9.7526 25.1694C9.7526 25.1758 9.7526 25.1821 9.7526 25.1884C9.7526 25.1947 9.7526 25.201 9.7526 25.2073C9.7526 25.2135 9.7526 25.2198 9.7526 25.226C9.7526 25.2322 9.7526 25.2384 9.7526 25.2445C9.7526 25.2507 9.7526 25.2568 9.7526 25.263C9.7526 25.2691 9.7526 25.2752 9.7526 25.2812C9.7526 25.2873 9.7526 25.2933 9.7526 25.2993C9.7526 25.3054 9.7526 25.3113 9.7526 25.3173C9.7526 25.3233 9.7526 25.3292 9.7526 25.3351C9.7526 25.3411 9.7526 25.3469 9.7526 25.3528C9.7526 25.3587 9.7526 25.3645 9.7526 25.3703C9.7526 25.3762 9.7526 25.382 9.7526 25.3877C9.7526 25.3935 9.7526 25.3992 9.7526 25.4049C9.7526 25.4107 9.7526 25.4164 9.7526 25.422C9.7526 25.4277 9.7526 25.4333 9.7526 25.4389C9.7526 25.4446 9.7526 25.4501 9.7526 25.4557C9.7526 25.4613 9.7526 25.4668 9.7526 25.4723C9.7526 25.4778 9.7526 25.4833 9.7526 25.4888C9.7526 25.4942 9.7526 25.4997 9.7526 25.5051C9.7526 25.5105 9.7526 25.5159 9.7526 25.5212C9.7526 25.5266 9.7526 25.5319 9.7526 25.5372C9.7526 25.5425 9.7526 25.5478 9.7526 25.553C9.7526 25.5583 9.7526 25.5635 9.7526 25.5687C9.7526 25.5739 9.7526 25.5791 9.7526 25.5842C9.7526 25.5894 9.7526 25.5945 9.7526 25.5996C9.7526 25.6046 9.7526 25.6097 9.7526 25.6147C9.7526 25.6198 9.7526 25.6248 9.7526 25.6298C9.7526 25.6347 9.7526 25.6397 9.7526 25.6446C9.7526 25.6496 9.7526 25.6544 9.7526 25.6593C9.7526 25.6642 9.7526 25.669 9.7526 25.6738C9.7526 25.6787 9.7526 25.6835 9.7526 25.6882C9.7526 25.693 9.7526 25.6977 9.7526 25.7024C9.7526 25.7071 9.7526 25.7118 9.7526 25.7164C9.7526 25.7211 9.7526 25.7257 9.7526 25.7303C9.7526 25.7349 9.7526 25.7395 9.7526 25.744C9.7526 25.7485 9.7526 25.753 9.7526 25.7575C9.7526 25.762 9.7526 25.7664 9.7526 25.7709C9.7526 25.7753 9.7526 25.7797 9.7526 25.784C9.7526 25.7884 9.7526 25.7927 9.7526 25.797C9.7526 25.8013 9.7526 25.8056 9.7526 25.8099C9.7526 25.8141 9.7526 25.8183 9.7526 25.8225C9.7526 25.8267 9.7526 25.8309 9.7526 25.835C9.7526 25.8391 9.7526 25.8432 9.7526 25.8473C9.7526 25.8514 9.7526 25.8554 9.7526 25.8594C9.7526 25.8635 9.7526 25.8674 9.7526 25.8714C9.7526 25.8754 9.7526 25.8793 9.7526 25.8832C9.7526 25.8871 9.7526 25.8909 9.7526 25.8948C9.7526 25.8986 9.7526 25.9024 9.7526 25.9062C9.7526 25.91 9.7526 25.9137 9.7526 25.9174C9.7526 25.9211 9.7526 25.9248 9.7526 25.9285C9.7526 25.9321 9.7526 25.9357 9.7526 25.9393C9.7526 25.9429 9.7526 25.9465 9.7526 25.95C9.7526 25.9536 9.7526 25.9571 9.7526 25.9605C9.7526 25.964 9.7526 25.9674 9.7526 25.9708C9.7526 25.9743 9.7526 25.9776 9.7526 25.981C9.7526 25.9843 9.7526 25.9876 9.7526 25.9909C9.7526 25.9942 9.7526 25.9975 9.7526 26.0007C9.7526 26.0039 9.7526 26.0071 9.7526 26.0103C9.7526 26.0134 9.7526 26.0165 9.7526 26.0196C9.7526 26.0227 9.7526 26.0258 9.7526 26.0288C9.7526 26.0319 9.7526 26.0349 9.7526 26.0378C9.7526 26.0408 9.7526 26.0437 9.7526 26.0466C9.7526 26.0495 9.7526 26.0524 9.7526 26.0552C9.7526 26.0581 9.7526 26.0609 9.7526 26.0637H12.7526ZM11.2526 14.7479C10.7959 16.1766 10.7962 16.1767 10.7965 16.1768C10.7966 16.1769 10.7969 16.177 10.7971 16.177C10.7976 16.1772 10.7982 16.1774 10.7988 16.1776C10.8 16.178 10.8015 16.1784 10.8033 16.179C10.8068 16.1801 10.8113 16.1815 10.8168 16.1832C10.8277 16.1867 10.8427 16.1913 10.8614 16.197C10.8988 16.2085 10.9514 16.2243 11.0172 16.2434C11.1488 16.2815 11.3346 16.3333 11.5605 16.3904C12.0089 16.5037 12.6317 16.6424 13.3112 16.7358C13.98 16.8279 14.7649 16.885 15.5178 16.804C16.2383 16.7264 17.157 16.4987 17.849 15.8148L15.7402 13.681C15.755 13.6663 15.6423 13.7732 15.1968 13.8212C14.7835 13.8657 14.2675 13.8391 13.7201 13.7638C13.1835 13.69 12.6747 13.5776 12.2956 13.4818C12.1078 13.4344 11.9559 13.392 11.8531 13.3622C11.8018 13.3473 11.7631 13.3356 11.7385 13.3281C11.7262 13.3244 11.7175 13.3216 11.7126 13.3201C11.7101 13.3193 11.7086 13.3188 11.708 13.3187C11.7077 13.3186 11.7077 13.3186 11.7079 13.3186C11.708 13.3187 11.7082 13.3187 11.7084 13.3188C11.7086 13.3188 11.7088 13.3189 11.7088 13.3189C11.7091 13.319 11.7093 13.3191 11.2526 14.7479ZM17.849 15.8148C18.6242 15.0487 19.1098 14.068 19.1098 12.9847C19.1098 11.9014 18.6242 10.9207 17.849 10.1546L15.7402 12.2884C16.0519 12.5965 16.1098 12.8419 16.1098 12.9847C16.1098 13.1275 16.0519 13.3729 15.7402 13.681L17.849 15.8148ZM17.849 10.1546C17.157 9.47071 16.2383 9.24298 15.5178 9.16544C14.7649 9.08441 13.98 9.14155 13.3112 9.23357C12.6317 9.32706 12.0089 9.46569 11.5605 9.57904C11.3346 9.63615 11.1488 9.68788 11.0172 9.72605C10.9514 9.74516 10.8988 9.76094 10.8614 9.77238C10.8427 9.7781 10.8277 9.78274 10.8168 9.78618C10.8113 9.7879 10.8068 9.78932 10.8033 9.79042C10.8015 9.79097 10.8 9.79145 10.7988 9.79184C10.7982 9.79204 10.7976 9.79221 10.7971 9.79237C10.7969 9.79244 10.7966 9.79255 10.7965 9.79258C10.7962 9.79268 10.7959 9.79277 11.2526 11.2215C11.7093 12.6503 11.7091 12.6504 11.7088 12.6505C11.7088 12.6505 11.7086 12.6506 11.7084 12.6506C11.7082 12.6507 11.708 12.6507 11.7079 12.6508C11.7077 12.6508 11.7077 12.6508 11.708 12.6507C11.7086 12.6506 11.7101 12.6501 11.7126 12.6493C11.7175 12.6478 11.7262 12.6451 11.7385 12.6413C11.7631 12.6338 11.8018 12.6221 11.8531 12.6072C11.9559 12.5774 12.1078 12.535 12.2956 12.4876C12.6747 12.3918 13.1835 12.2794 13.7201 12.2056C14.2675 12.1303 14.7835 12.1037 15.1968 12.1482C15.6423 12.1962 15.755 12.3031 15.7402 12.2884L17.849 10.1546ZM11.2526 11.2215C12.6542 10.6872 12.6543 10.6876 12.6545 10.6879C12.6545 10.688 12.6546 10.6883 12.6547 10.6885C12.6549 10.6889 12.655 10.6893 12.6551 10.6896C12.6554 10.6903 12.6556 10.6909 12.6557 10.6913C12.6561 10.6921 12.6562 10.6924 12.6561 10.6923C12.656 10.6919 12.6551 10.6896 12.6536 10.6853C12.6505 10.6768 12.6448 10.6609 12.6371 10.6381C12.6215 10.5925 12.5981 10.5209 12.5715 10.4293C12.5173 10.2431 12.4539 9.98947 12.4125 9.71327C12.3151 9.0625 12.401 8.69711 12.4828 8.57976L10.0224 6.86335C9.24143 7.98282 9.32731 9.36743 9.44558 10.1574C9.51208 10.6016 9.61047 10.9911 9.69108 11.2679C9.73181 11.4078 9.76908 11.5226 9.79736 11.6056C9.81153 11.6472 9.82352 11.6811 9.83266 11.7063C9.83724 11.719 9.84111 11.7295 9.84419 11.7378C9.84573 11.7419 9.84708 11.7455 9.84821 11.7485C9.84878 11.75 9.8493 11.7514 9.84977 11.7526C9.85 11.7532 9.85022 11.7538 9.85042 11.7544C9.85053 11.7546 9.85067 11.755 9.85072 11.7552C9.85086 11.7555 9.851 11.7559 11.2526 11.2215ZM12.4828 8.57976C12.3881 8.7155 12.2872 8.79905 12.2224 8.8444C12.1579 8.88947 12.1112 8.90941 12.1002 8.91393C12.0844 8.92042 12.126 8.9023 12.2585 8.88054C12.5217 8.83732 12.9297 8.81287 13.4851 8.81602C14.5844 8.82224 16.0091 8.93258 17.4847 9.06207C18.9274 9.18867 20.4293 9.33474 21.5816 9.39444C22.1533 9.42406 22.7029 9.4364 23.1471 9.40432C23.3627 9.38875 23.6249 9.35832 23.8777 9.28523C24.031 9.24091 24.6482 9.06105 24.9863 8.4299L22.3419 7.0132C22.4973 6.72308 22.7107 6.57012 22.8212 6.50395C22.9349 6.43586 23.0227 6.40956 23.0446 6.40322C23.0857 6.39134 23.0631 6.40257 22.9309 6.41212C22.6796 6.43027 22.2821 6.42671 21.7369 6.39846C20.6554 6.34243 19.2438 6.20491 17.7469 6.07355C16.2828 5.94508 14.7416 5.82308 13.5021 5.81606C12.8881 5.81259 12.2834 5.83629 11.7724 5.92018C11.5178 5.96198 11.2319 6.02715 10.9584 6.1397C10.7048 6.24409 10.3105 6.45026 10.0224 6.86335L12.4828 8.57976ZM24.9863 8.4299C25.6926 7.11147 25.7182 5.45175 25.1148 3.15607L22.2134 3.91861C22.74 5.92236 22.5215 6.67793 22.3419 7.0132L24.9863 8.4299ZM25.1148 3.15607C24.947 2.51766 24.4996 2.12904 24.1933 1.92097C23.8666 1.69899 23.4921 1.54011 23.1388 1.42004C22.4254 1.1776 21.5179 1.00125 20.5364 0.869846C18.5543 0.604475 15.9979 0.488113 13.4474 0.500955C10.8937 0.513813 8.28757 0.656536 6.20038 0.925823C5.16144 1.05987 4.20967 1.2304 3.44242 1.44598C3.05972 1.55351 2.6858 1.68241 2.35522 1.84205C2.05105 1.98893 1.64721 2.22541 1.34421 2.61193L3.70524 4.46275C3.59307 4.60585 3.51692 4.61254 3.65976 4.54356C3.77619 4.48734 3.96858 4.41432 4.25392 4.33414C4.82275 4.17431 5.61395 4.02635 6.58425 3.90116C8.51553 3.65199 10.9928 3.51335 13.4625 3.50092C15.9355 3.48846 18.3424 3.60288 20.1383 3.84332C21.0459 3.96482 21.7311 4.11014 22.1735 4.26049C22.2791 4.29637 22.3598 4.32888 22.419 4.35621C22.4481 4.36966 22.4698 4.38084 22.4851 4.38929C22.5006 4.3978 22.5074 4.4024 22.5074 4.40239C22.5072 4.40229 22.5049 4.4007 22.5007 4.3975C22.4965 4.3943 22.4901 4.3892 22.4819 4.38206C22.4659 4.36813 22.4402 4.34398 22.4101 4.30821C22.3498 4.23646 22.2629 4.10704 22.2134 3.91861L25.1148 3.15607ZM1.34421 2.61193C0.069772 4.23769 0.51041 6.28583 0.915242 7.46515C1.13993 8.11968 1.41617 8.69087 1.63207 9.09375C1.74112 9.29723 1.83753 9.46287 1.90856 9.58054C1.94415 9.63949 1.97355 9.68672 1.99523 9.72097C2.00608 9.73811 2.015 9.75203 2.02182 9.76258C2.02523 9.76786 2.02811 9.77229 2.03045 9.77586C2.03161 9.77765 2.03264 9.77922 2.03353 9.78058C2.03398 9.78126 2.03439 9.78188 2.03476 9.78245C2.03495 9.78274 2.0352 9.78312 2.0353 9.78326C2.03554 9.78364 2.03578 9.78399 3.28814 8.95841C4.5405 8.13282 4.54072 8.13315 4.54093 8.13347C4.54099 8.13356 4.54119 8.13387 4.5413 8.13405C4.54154 8.1344 4.54174 8.13471 4.54191 8.13497C4.54225 8.13548 4.54245 8.13579 4.54252 8.1359C4.54266 8.13612 4.54229 8.13554 4.54141 8.13419C4.53965 8.13147 4.53591 8.12565 4.53035 8.11687C4.51923 8.09929 4.50093 8.06999 4.47688 8.03014C4.42865 7.95024 4.35808 7.82928 4.2763 7.67668C4.11054 7.36738 3.9097 6.94843 3.75272 6.49112C3.39421 5.44674 3.45314 4.78435 3.70524 4.46275L1.34421 2.61193ZM2.09341 9.8654L2.90632 10.9362L5.29577 9.12222L4.48286 8.05142L2.09341 9.8654ZM5.64416 11.2215C7.07295 10.7649 7.07293 10.7648 7.07292 10.7647C7.07291 10.7647 7.07289 10.7647 7.07287 10.7646C7.07284 10.7645 7.0728 10.7644 7.07275 10.7642C7.07266 10.7639 7.07254 10.7636 7.0724 10.7631C7.07211 10.7622 7.07173 10.761 7.07125 10.7595C7.07028 10.7565 7.06893 10.7523 7.06721 10.747C7.06376 10.7363 7.05884 10.721 7.05261 10.7019C7.04016 10.6636 7.02243 10.6094 7.00079 10.5443C6.9578 10.4148 6.89813 10.2384 6.83316 10.0561C6.7698 9.87828 6.69435 9.67493 6.62028 9.49932C6.58427 9.41396 6.53798 9.30968 6.48478 9.20891C6.45849 9.15911 6.41908 9.08825 6.36741 9.0118C6.33151 8.95868 6.21929 8.79449 6.02838 8.64317L4.16487 10.9942C3.99056 10.856 3.89714 10.7143 3.88191 10.6918C3.8509 10.6459 3.83401 10.6137 3.83177 10.6094C3.82666 10.5998 3.83456 10.6141 3.85611 10.6652C3.89715 10.7625 3.95028 10.9033 4.00721 11.0631C4.06253 11.2183 4.11485 11.3729 4.15377 11.49C4.17309 11.5482 4.1888 11.5962 4.19955 11.6293C4.20492 11.6458 4.20904 11.6586 4.21174 11.6669C4.21309 11.6711 4.21408 11.6742 4.21469 11.6761C4.215 11.6771 4.21521 11.6777 4.21532 11.6781C4.21538 11.6783 4.21541 11.6784 4.21542 11.6784C4.21543 11.6784 4.21542 11.6784 4.21542 11.6784C4.21541 11.6784 4.2154 11.6783 4.2154 11.6783C4.21539 11.6783 4.21537 11.6782 5.64416 11.2215ZM2.3387 10.3147C2.14923 10.9152 2.37993 11.4051 2.5445 11.6392C2.69555 11.8541 2.86629 11.9774 2.93537 12.0248C3.08716 12.1291 3.23015 12.1873 3.28184 12.208C3.41353 12.2609 3.55308 12.3013 3.65251 12.3285C3.86963 12.3879 4.13926 12.4487 4.38177 12.5004C4.6308 12.5534 4.87831 12.6024 5.06186 12.6379C5.15409 12.6557 5.23117 12.6703 5.28551 12.6805C5.31269 12.6856 5.33424 12.6897 5.34919 12.6924C5.35667 12.6938 5.3625 12.6949 5.36657 12.6956C5.36861 12.696 5.3702 12.6963 5.37134 12.6965C5.37191 12.6966 5.37237 12.6967 5.37271 12.6968C5.37288 12.6968 5.37302 12.6968 5.37314 12.6969C5.37319 12.6969 5.37326 12.6969 5.37328 12.6969C5.37334 12.6969 5.37339 12.6969 5.64416 11.2215C5.91494 9.74619 5.91497 9.74619 5.915 9.7462C5.915 9.7462 5.91501 9.7462 5.91501 9.7462C5.91501 9.7462 5.91498 9.7462 5.91492 9.74618C5.9148 9.74616 5.91456 9.74612 5.91422 9.74606C5.91352 9.74593 5.91238 9.74572 5.91081 9.74543C5.90766 9.74485 5.90278 9.74395 5.89629 9.74274C5.88331 9.74033 5.86389 9.73672 5.83896 9.73204C5.78907 9.72267 5.71734 9.70909 5.63119 9.69244C5.45799 9.65896 5.23053 9.61386 5.00667 9.56618C4.77629 9.51712 4.5751 9.47066 4.44377 9.43475C4.41298 9.42633 4.39239 9.42021 4.3805 9.41647C4.36602 9.4119 4.37499 9.41419 4.3986 9.42365C4.41097 9.42862 4.43627 9.4391 4.46959 9.45548C4.49916 9.47001 4.56036 9.50147 4.63418 9.55219C4.67234 9.57841 4.72488 9.61727 4.78317 9.66999C4.83968 9.72112 4.91974 9.80154 4.99879 9.914C5.07747 10.0259 5.17527 10.1983 5.22925 10.4279C5.28634 10.6708 5.28576 10.9445 5.19968 11.2174L2.3387 10.3147ZM3.44537 11.4952L4.7728 12.4425L6.51552 10.0006L5.18809 9.05324L3.44537 11.4952ZM6.02839 8.64317C5.55867 8.27086 5.05615 8.30219 4.89247 8.32015C4.68819 8.34257 4.52731 8.40004 4.4453 8.43209C4.27112 8.50015 4.1183 8.58882 4.02035 8.64889C3.80743 8.77948 3.58043 8.9461 3.39394 9.09163L5.23952 11.4568C5.38615 11.3423 5.51309 11.2527 5.58883 11.2062C5.63521 11.1778 5.6104 11.1977 5.53716 11.2263C5.50561 11.2387 5.38842 11.2837 5.21973 11.3022C5.09163 11.3163 4.61657 11.3522 4.16487 10.9942L6.02839 8.64317ZM3.39394 9.09163C3.23202 9.21798 3.07195 9.35089 2.94196 9.46744C2.87909 9.52381 2.80734 9.59054 2.74134 9.65907C2.70979 9.69182 2.66145 9.74361 2.61101 9.8071C2.60229 9.81808 2.43235 10.0179 2.3387 10.3147L5.19968 11.2174C5.1695 11.313 5.13514 11.3878 5.11064 11.4364C5.08514 11.487 5.06094 11.5276 5.04281 11.5563C5.00761 11.612 4.97647 11.6524 4.9601 11.6731C4.92742 11.7142 4.90341 11.7388 4.90195 11.7404C4.89613 11.7464 4.90764 11.7343 4.94463 11.7011C5.01437 11.6386 5.12047 11.5497 5.23952 11.4568L3.39394 9.09163ZM2.97518 11.0204L3.19086 11.2654L5.44259 9.28302L5.22691 9.03803L2.97518 11.0204Z" fill="url(#paint2_linear_108_39)"/>
<path fill-rule="evenodd" clip-rule="evenodd" d="M50.8953 15.4895C51.0349 16.7657 51.1047 17.6431 51.1047 18.1216C51.1047 18.6002 50.9402 19.1236 50.6112 19.6919C50.2722 20.2702 49.7089 20.5593 48.9212 20.5593H44.6141C44.684 22.6431 44.8136 24.2233 45.003 25.3001C44.5743 26.1376 43.6171 26.7358 42.1316 27.0947C41.5334 27.2343 40.8255 27.3041 40.008 27.3041C39.1804 27.3041 38.4377 27.01 37.7797 26.4217C37.1216 25.8335 36.8175 25.1954 36.8674 24.5075C36.8674 20.7288 37.0319 15.8834 37.3609 9.97109C36.8325 9.87138 36.5334 9.79661 36.4636 9.74676C36.1545 8.95913 36 7.90229 36 6.57627C36 5.25025 36.3589 4.15354 37.0768 3.28614C37.7946 2.42871 38.8016 2 40.0977 2C40.2373 2 40.4865 2 40.8454 2C41.2044 2 42.4606 2.05982 44.6141 2.17945C46.7677 2.2991 49.0309 2.35892 51.4038 2.35892C51.663 3.07677 51.7926 4.22333 51.7926 5.79861C51.7926 7.38385 51.4935 8.62014 50.8953 9.50747C50.2971 10.3848 49.315 10.8235 47.9491 10.8235C46.5832 10.8235 45.4217 10.8036 44.4646 10.7637V15.6092C46.668 15.5294 48.8115 15.4895 50.8953 15.4895ZM56.4455 27.3041C54.4814 27.3041 53.4994 25.8933 53.4994 23.0718V12.3041L52.7067 9.82153C52.8065 9.70189 52.946 9.54735 53.1255 9.35792C53.305 9.1685 53.6938 8.91924 54.292 8.61017C54.8902 8.29112 55.5084 8.1316 56.1464 8.1316C57.6619 8.1316 58.5741 9.08873 58.8832 11.003C60.0497 9.18843 61.4405 8.28115 63.0557 8.28115C64.6708 8.28115 65.4784 9.04885 65.4784 10.5842C65.4784 11.9202 65.1943 13.017 64.626 13.8744C64.0976 14.6421 63.5442 15.2552 62.966 15.7139C61.8493 14.7069 60.5233 14.0588 58.9879 13.7697V23.2812L59.7805 25.1206C59.6808 25.2802 59.5462 25.4796 59.3768 25.7188C59.2172 25.9581 58.8483 26.2822 58.27 26.6909C57.6918 27.0997 57.0836 27.3041 56.4455 27.3041ZM77.8118 22.1745C78.071 22.4337 78.2006 22.7777 78.2006 23.2064C78.2006 23.6451 78.0859 24.0837 77.8566 24.5224C77.6273 24.9611 77.2933 25.3898 76.8546 25.8086C76.4159 26.2273 75.7878 26.5813 74.9703 26.8704C74.1527 27.1595 73.2604 27.3041 72.2933 27.3041C71.3262 27.3041 70.4588 27.1645 69.6911 26.8853C68.9234 26.6162 68.1956 26.1825 67.5077 25.5842C66.0022 24.2383 65.2494 22.0498 65.2494 19.0189C65.2494 15.9781 65.7629 13.7198 66.7898 12.2443C67.8167 10.7787 68.9882 9.97109 70.3043 9.82153C71.2614 8.79462 72.4179 8.28115 73.7739 8.28115C75.1198 8.28115 76.2165 8.76969 77.064 9.74676C77.9214 10.7338 78.3501 12.0748 78.3501 13.7697C78.3501 15.7537 77.6173 17.324 76.1517 18.4806C74.9553 19.4377 73.5196 20.1655 71.8446 20.664C72.6821 21.7607 74.073 22.3091 76.0171 22.3091C76.5655 22.3091 77.1637 22.2642 77.8118 22.1745ZM73.3551 15.5344C73.3551 14.0688 72.4578 13.2662 70.6632 13.1266V16.3569C70.6632 17.4337 70.7579 18.2961 70.9474 18.9442C72.5525 18.0568 73.3551 16.9202 73.3551 15.5344ZM91.5985 22.1745C91.8577 22.4337 91.9873 22.7777 91.9873 23.2064C91.9873 23.6451 91.8727 24.0837 91.6434 24.5224C91.4141 24.9611 91.0801 25.3898 90.6414 25.8086C90.2027 26.2273 89.5746 26.5813 88.757 26.8704C87.9395 27.1595 87.0472 27.3041 86.0801 27.3041C85.113 27.3041 84.2456 27.1645 83.4779 26.8853C82.7102 26.6162 81.9823 26.1825 81.2944 25.5842C79.789 24.2383 79.0362 22.0498 79.0362 19.0189C79.0362 15.9781 79.5497 13.7198 80.5766 12.2443C81.6035 10.7787 82.775 9.97109 84.091 9.82153C85.0482 8.79462 86.2047 8.28115 87.5606 8.28115C88.9066 8.28115 90.0033 8.76969 90.8508 9.74676C91.7082 10.7338 92.1369 12.0748 92.1369 13.7697C92.1369 15.7537 91.4041 17.324 89.9385 18.4806C88.7421 19.4377 87.3064 20.1655 85.6314 20.664C86.4689 21.7607 87.8597 22.3091 89.8039 22.3091C90.3523 22.3091 90.9504 22.2642 91.5985 22.1745ZM87.1419 15.5344C87.1419 14.0688 86.2446 13.2662 84.45 13.1266V16.3569C84.45 17.4337 84.5447 18.2961 84.7341 18.9442C86.3393 18.0568 87.1419 16.9202 87.1419 15.5344ZM99.3434 31.2223C98.5757 31.7408 97.6784 32 96.6515 32C95.6246 32 94.9017 31.8006 94.483 31.4018C94.0642 30.993 93.8549 30.335 93.8549 29.4277V12.3041L93.0622 9.82153C93.162 9.70189 93.3015 9.54735 93.481 9.35792C93.6605 9.1685 94.0493 8.91924 94.6475 8.61017C95.2457 8.29112 95.8639 8.1316 96.5019 8.1316C97.7482 8.1316 98.5857 8.81455 99.0144 10.1805C100.291 8.91425 101.711 8.28115 103.277 8.28115C104.842 8.28115 106.048 8.7647 106.896 9.7318C107.743 10.6989 108.167 11.985 108.167 13.5902V18.2562C108.167 20.4596 107.31 22.5184 105.595 24.4327C103.87 26.347 101.956 27.3041 99.8519 27.3041H99.3434V31.2223ZM99.3434 22.7129C99.7023 23.002 100.171 23.1466 100.749 23.1466C101.317 23.1466 101.781 22.9671 102.14 22.6082C102.499 22.2493 102.678 21.7458 102.678 21.0977V15.8933C102.678 14.6271 102.369 13.7647 101.751 13.3061C101.362 13.0668 100.969 12.9472 100.57 12.9472C100.161 12.9472 99.7522 13.007 99.3434 13.1266V22.7129ZM117.058 16.5065C117.058 14.8016 116.116 13.9492 114.231 13.9492C113.154 13.9492 112.028 14.2981 110.851 14.996C110.473 14.6072 110.283 14.1336 110.283 13.5753C110.283 13.017 110.443 12.4387 110.762 11.8405C111.091 11.2423 111.524 10.674 112.063 10.1356C112.601 9.59721 113.289 9.15354 114.127 8.80458C114.964 8.45563 115.846 8.28115 116.774 8.28115C118.638 8.28115 120.074 8.86939 121.081 10.0459C122.088 11.2124 122.591 12.8873 122.591 15.0708V23.2812L123.384 25.1206C123.284 25.2802 123.149 25.4796 122.98 25.7188C122.82 25.9581 122.452 26.2822 121.873 26.6909C121.295 27.0997 120.697 27.3041 120.079 27.3041C118.523 27.3041 117.576 26.4417 117.237 24.7168C116.45 26.4417 115.358 27.3041 113.962 27.3041C112.556 27.3041 111.489 26.8654 110.762 25.988C110.034 25.1206 109.67 23.9791 109.67 22.5633C109.67 18.9043 112.133 16.9651 117.058 16.7458V16.5065ZM114.156 21.2323C114.156 22.1695 114.481 22.7677 115.129 23.0269C115.268 23.1067 115.423 23.1466 115.592 23.1466C116.071 23.1466 116.559 22.8674 117.058 22.3091V18.3609C115.124 18.8195 114.156 19.7767 114.156 21.2323ZM129.305 12.8724C129.305 13.8295 130.168 14.6919 131.892 15.4596C132.59 15.7986 133.293 16.1625 134.001 16.5513C134.699 16.9502 135.302 17.5234 135.811 18.2712C136.309 19.0289 136.558 19.9462 136.558 21.0229C136.558 22.9172 135.92 24.4377 134.644 25.5842C133.358 26.7308 131.778 27.3041 129.903 27.3041C128.029 27.3041 126.573 26.8903 125.536 26.0628C124.509 25.2353 123.996 24.3679 123.996 23.4606C123.996 22.8425 124.146 22.2891 124.445 21.8006C124.744 21.3021 125.048 20.9731 125.357 20.8136L125.791 20.5593C125.94 20.7687 126.15 21.0379 126.419 21.3669C126.698 21.6859 127.241 22.1097 128.049 22.6381C128.866 23.1665 129.569 23.4307 130.158 23.4307C130.746 23.4307 131.15 23.341 131.369 23.1615C131.598 22.9821 131.713 22.7827 131.713 22.5633C131.713 22.1545 131.339 21.7258 130.591 21.2772C129.833 20.8185 129.011 20.3948 128.124 20.006C127.236 19.6072 126.419 19.0239 125.671 18.2562C124.913 17.4885 124.534 16.6161 124.534 15.6391C124.534 14.662 124.829 13.7298 125.417 12.8425C126.005 11.9551 126.693 11.332 127.481 10.9731C127.6 10.2054 128.084 9.53739 128.931 8.96909C129.779 8.39082 130.85 8.1017 132.147 8.1017C133.443 8.1017 134.485 8.4008 135.272 8.999C136.06 9.59721 136.454 10.3998 136.454 11.4068C136.454 12.4138 136.309 13.1416 136.02 13.5902C135.731 14.0489 135.277 14.4078 134.659 14.667C133.602 13.5005 131.818 12.7976 129.305 12.5583V12.8724ZM142.788 12.8724C142.788 13.8295 143.651 14.6919 145.375 15.4596C146.073 15.7986 146.776 16.1625 147.484 16.5513C148.182 16.9502 148.785 17.5234 149.294 18.2712C149.792 19.0289 150.041 19.9462 150.041 21.0229C150.041 22.9172 149.403 24.4377 148.127 25.5842C146.841 26.7308 145.261 27.3041 143.386 27.3041C141.512 27.3041 140.056 26.8903 139.019 26.0628C137.992 25.2353 137.479 24.3679 137.479 23.4606C137.479 22.8425 137.629 22.2891 137.928 21.8006C138.227 21.3021 138.531 20.9731 138.84 20.8136L139.274 20.5593C139.423 20.7687 139.633 21.0379 139.902 21.3669C140.181 21.6859 140.724 22.1097 141.532 22.6381C142.349 23.1665 143.052 23.4307 143.641 23.4307C144.229 23.4307 144.633 23.341 144.852 23.1615C145.081 22.9821 145.196 22.7827 145.196 22.5633C145.196 22.1545 144.822 21.7258 144.074 21.2772C143.316 20.8185 142.494 20.3948 141.607 20.006C140.719 19.6072 139.902 19.0239 139.154 18.2562C138.396 17.4885 138.017 16.6161 138.017 15.6391C138.017 14.662 138.312 13.7298 138.9 12.8425C139.488 11.9551 140.176 11.332 140.964 10.9731C141.083 10.2054 141.567 9.53739 142.414 8.96909C143.262 8.39082 144.333 8.1017 145.63 8.1017C146.926 8.1017 147.968 8.4008 148.755 8.999C149.543 9.59721 149.937 10.3998 149.937 11.4068C149.937 12.4138 149.792 13.1416 149.503 13.5902C149.214 14.0489 148.76 14.4078 148.142 14.667C147.085 13.5005 145.301 12.7976 142.788 12.5583V12.8724Z" fill="url(#paint3_linear_108_39)"/>
<defs>
<linearGradient id="paint0_linear_108_39" x1="24.3007" y1="10.1842" x2="24.3007" y2="31.079" gradientUnits="userSpaceOnUse">
<stop stop-color="#000934"/>
<stop offset="0.453704" stop-color="#1624A1"/>
<stop offset="1" stop-color="#A2BDF2"/>
</linearGradient>
<linearGradient id="paint1_linear_108_39" x1="24.3007" y1="10.1842" x2="24.3007" y2="31.079" gradientUnits="userSpaceOnUse">
<stop stop-color="#000934"/>
<stop offset="0.453704" stop-color="#1624A1"/>
<stop offset="1" stop-color="#A2BDF2"/>
</linearGradient>
<linearGradient id="paint2_linear_108_39" x1="13.0217" y1="2" x2="13.0217" y2="27.0807" gradientUnits="userSpaceOnUse">
<stop stop-color="#000934"/>
<stop offset="0.609954" stop-color="#1624A1"/>
<stop offset="1" stop-color="#A2BDF2"/>
</linearGradient>
<linearGradient id="paint3_linear_108_39" x1="93.0207" y1="2.13159" x2="93.0207" y2="32" gradientUnits="userSpaceOnUse">
<stop stop-color="#000934"/>
<stop offset="0.453704" stop-color="#1624A1"/>
<stop offset="1" stop-color="#A2BDF2"/>
</linearGradient>
</defs>
</svg>
